solid drone
 facet normal 0.000000 0.000000 1.000000
  outer loop
   vertex -0.012500 -0.012500 -0.004000
   vertex 0.012500 -0.012500 -0.004000
   vertex 0.012500 0.012500 -0.004000
  endloop
 endfacet
 facet normal 0.000000 0.000000 1.000000
  outer loop
   vertex -0.012500 -0.012500 -0.004000
   vertex 0.012500 0.012500 -0.004000
   vertex -0.012500 0.012500 -0.004000
  endloop
 endfacet
 facet normal 0.000000 0.000000 1.000000
  outer loop
   vertex -0.012500 -0.012500 0.004000
   vertex 0.012500 0.012500 0.004000
   vertex -0.012500 0.012500 0.004000
  endloop
 endfacet
 facet normal 0.000000 0.000000 -1.000000
  outer loop
   vertex -0.012500 -0.012500 0.004000
   vertex -0.012500 0.012500 0.004000
   vertex 0.012500 -0.012500 0.004000
  endloop
 endfacet
 facet normal 0.000000 1.000000 0.000000
  outer loop
   vertex -0.012500 -0.012500 -0.004000
   vertex -0.012500 -0.012500 0.004000
   vertex 0.012500 -0.012500 0.004000
  endloop
 endfacet
 facet normal 0.000000 1.000000 0.000000
  outer loop
   vertex -0.012500 -0.012500 -0.004000
   vertex 0.012500 -0.012500 0.004000
   vertex 0.012500 -0.012500 -0.004000
  endloop
 endfacet
 facet normal -0.707107 -0.707107 0.000000
  outer loop
   vertex 0.012500 -0.012500 -0.004000
   vertex 0.012500 -0.012500 0.004000
   vertex -0.012500 0.012500 0.004000
  endloop
 endfacet
 facet normal -0.304776 0.000000 -0.952424
  outer loop
   vertex 0.012500 -0.012500 -0.004000
   vertex -0.012500 0.012500 0.004000
   vertex 0.012500 0.012500 -0.004000
  endloop
 endfacet
 facet normal 0.000000 1.000000 -0.000000
  outer loop
   vertex 0.012500 0.012500 -0.004000
   vertex -0.012500 0.012500 0.004000
   vertex 0.012500 0.012500 0.004000
  endloop
 endfacet
 facet normal 0.000000 -1.000000 0.000000
  outer loop
   vertex 0.012500 0.012500 -0.004000
   vertex 0.012500 0.012500 0.004000
   vertex -0.012500 0.012500 -0.004000
  endloop
 endfacet
 facet normal 0.291536 -0.291536 -0.911051
  outer loop
   vertex -0.012500 0.012500 -0.004000
   vertex 0.012500 0.012500 0.004000
   vertex -0.012500 -0.012500 0.004000
  endloop
 endfacet
 facet normal 1.000000 0.000000 0.000000
  outer loop
   vertex -0.012500 0.012500 -0.004000
   vertex -0.012500 -0.012500 0.004000
   vertex -0.012500 -0.012500 -0.004000
  endloop
 endfacet
 facet normal 0.000000 0.000000 1.000000
  outer loop
   vertex 0.005127 0.003359 -0.001250
   vertex 0.033411 0.031643 -0.001250
   vertex 0.031643 0.033411 -0.001250
  endloop
 endfacet
 facet normal 0.000000 -0.000000 1.000000
  outer loop
   vertex 0.005127 0.003359 -0.001250
   vertex 0.031643 0.033411 -0.001250
   vertex 0.003359 0.005127 -0.001250
  endloop
 endfacet
 facet normal 0.000000 -0.000000 1.000000
  outer loop
   vertex 0.005127 0.003359 0.001250
   vertex 0.031643 0.033411 0.001250
   vertex 0.003359 0.005127 0.001250
  endloop
 endfacet
 facet normal 0.000000 0.000000 -1.000000
  outer loop
   vertex 0.005127 0.003359 0.001250
   vertex 0.003359 0.005127 0.001250
   vertex 0.033411 0.031643 0.001250
  endloop
 endfacet
 facet normal -0.707107 0.707107 0.000000
  outer loop
   vertex 0.005127 0.003359 -0.001250
   vertex 0.005127 0.003359 0.001250
   vertex 0.033411 0.031643 0.001250
  endloop
 endfacet
 facet normal -0.707107 0.707107 0.000000
  outer loop
   vertex 0.005127 0.003359 -0.001250
   vertex 0.033411 0.031643 0.001250
   vertex 0.033411 0.031643 -0.001250
  endloop
 endfacet
 facet normal 0.661622 -0.749838 0.000000
  outer loop
   vertex 0.033411 0.031643 -0.001250
   vertex 0.033411 0.031643 0.001250
   vertex 0.003359 0.005127 0.001250
  endloop
 endfacet
 facet normal -0.044108 -0.044108 -0.998053
  outer loop
   vertex 0.033411 0.031643 -0.001250
   vertex 0.003359 0.005127 0.001250
   vertex 0.031643 0.033411 -0.001250
  endloop
 endfacet
 facet normal -0.707107 0.707107 0.000000
  outer loop
   vertex 0.031643 0.033411 -0.001250
   vertex 0.003359 0.005127 0.001250
   vertex 0.031643 0.033411 0.001250
  endloop
 endfacet
 facet normal 0.707107 -0.707107 0.000000
  outer loop
   vertex 0.031643 0.033411 -0.001250
   vertex 0.031643 0.033411 0.001250
   vertex 0.003359 0.005127 -0.001250
  endloop
 endfacet
 facet normal 0.530732 -0.468293 -0.706417
  outer loop
   vertex 0.003359 0.005127 -0.001250
   vertex 0.031643 0.033411 0.001250
   vertex 0.005127 0.003359 0.001250
  endloop
 endfacet
 facet normal 0.707107 0.707107 0.000000
  outer loop
   vertex 0.003359 0.005127 -0.001250
   vertex 0.005127 0.003359 0.001250
   vertex 0.005127 0.003359 -0.001250
  endloop
 endfacet
 facet normal 0.000000 0.000000 1.000000
  outer loop
   vertex -0.003359 0.005127 -0.001250
   vertex -0.031643 0.033411 -0.001250
   vertex -0.033411 0.031643 -0.001250
  endloop
 endfacet
 facet normal 0.000000 0.000000 1.000000
  outer loop
   vertex -0.003359 0.005127 -0.001250
   vertex -0.033411 0.031643 -0.001250
   vertex -0.005127 0.003359 -0.001250
  endloop
 endfacet
 facet normal 0.000000 0.000000 1.000000
  outer loop
   vertex -0.003359 0.005127 0.001250
   vertex -0.033411 0.031643 0.001250
   vertex -0.005127 0.003359 0.001250
  endloop
 endfacet
 facet normal -0.000000 0.000000 -1.000000
  outer loop
   vertex -0.003359 0.005127 0.001250
   vertex -0.005127 0.003359 0.001250
   vertex -0.031643 0.033411 0.001250
  endloop
 endfacet
 facet normal -0.707107 -0.707107 0.000000
  outer loop
   vertex -0.003359 0.005127 -0.001250
   vertex -0.003359 0.005127 0.001250
   vertex -0.031643 0.033411 0.001250
  endloop
 endfacet
 facet normal -0.707107 -0.707107 0.000000
  outer loop
   vertex -0.003359 0.005127 -0.001250
   vertex -0.031643 0.033411 0.001250
   vertex -0.031643 0.033411 -0.001250
  endloop
 endfacet
 facet normal 0.749838 0.661622 -0.000000
  outer loop
   vertex -0.031643 0.033411 -0.001250
   vertex -0.031643 0.033411 0.001250
   vertex -0.005127 0.003359 0.001250
  endloop
 endfacet
 facet normal 0.044108 -0.044108 -0.998053
  outer loop
   vertex -0.031643 0.033411 -0.001250
   vertex -0.005127 0.003359 0.001250
   vertex -0.033411 0.031643 -0.001250
  endloop
 endfacet
 facet normal -0.707107 -0.707107 0.000000
  outer loop
   vertex -0.033411 0.031643 -0.001250
   vertex -0.005127 0.003359 0.001250
   vertex -0.033411 0.031643 0.001250
  endloop
 endfacet
 facet normal 0.707107 0.707107 -0.000000
  outer loop
   vertex -0.033411 0.031643 -0.001250
   vertex -0.033411 0.031643 0.001250
   vertex -0.005127 0.003359 -0.001250
  endloop
 endfacet
 facet normal 0.468293 0.530732 -0.706417
  outer loop
   vertex -0.005127 0.003359 -0.001250
   vertex -0.033411 0.031643 0.001250
   vertex -0.003359 0.005127 0.001250
  endloop
 endfacet
 facet normal -0.707107 0.707107 0.000000
  outer loop
   vertex -0.005127 0.003359 -0.001250
   vertex -0.003359 0.005127 0.001250
   vertex -0.003359 0.005127 -0.001250
  endloop
 endfacet
 facet normal 0.000000 0.000000 1.000000
  outer loop
   vertex -0.005127 -0.003359 -0.001250
   vertex -0.033411 -0.031643 -0.001250
   vertex -0.031643 -0.033411 -0.001250
  endloop
 endfacet
 facet normal 0.000000 0.000000 1.000000
  outer loop
   vertex -0.005127 -0.003359 -0.001250
   vertex -0.031643 -0.033411 -0.001250
   vertex -0.003359 -0.005127 -0.001250
  endloop
 endfacet
 facet normal 0.000000 0.000000 1.000000
  outer loop
   vertex -0.005127 -0.003359 0.001250
   vertex -0.031643 -0.033411 0.001250
   vertex -0.003359 -0.005127 0.001250
  endloop
 endfacet
 facet normal 0.000000 -0.000000 -1.000000
  outer loop
   vertex -0.005127 -0.003359 0.001250
   vertex -0.003359 -0.005127 0.001250
   vertex -0.033411 -0.031643 0.001250
  endloop
 endfacet
 facet normal 0.707107 -0.707107 0.000000
  outer loop
   vertex -0.005127 -0.003359 -0.001250
   vertex -0.005127 -0.003359 0.001250
   vertex -0.033411 -0.031643 0.001250
  endloop
 endfacet
 facet normal 0.707107 -0.707107 0.000000
  outer loop
   vertex -0.005127 -0.003359 -0.001250
   vertex -0.033411 -0.031643 0.001250
   vertex -0.033411 -0.031643 -0.001250
  endloop
 endfacet
 facet normal -0.661622 0.749838 0.000000
  outer loop
   vertex -0.033411 -0.031643 -0.001250
   vertex -0.033411 -0.031643 0.001250
   vertex -0.003359 -0.005127 0.001250
  endloop
 endfacet
 facet normal 0.044108 0.044108 -0.998053
  outer loop
   vertex -0.033411 -0.031643 -0.001250
   vertex -0.003359 -0.005127 0.001250
   vertex -0.031643 -0.033411 -0.001250
  endloop
 endfacet
 facet normal 0.707107 -0.707107 0.000000
  outer loop
   vertex -0.031643 -0.033411 -0.001250
   vertex -0.003359 -0.005127 0.001250
   vertex -0.031643 -0.033411 0.001250
  endloop
 endfacet
 facet normal -0.707107 0.707107 0.000000
  outer loop
   vertex -0.031643 -0.033411 -0.001250
   vertex -0.031643 -0.033411 0.001250
   vertex -0.003359 -0.005127 -0.001250
  endloop
 endfacet
 facet normal -0.530732 0.468293 -0.706417
  outer loop
   vertex -0.003359 -0.005127 -0.001250
   vertex -0.031643 -0.033411 0.001250
   vertex -0.005127 -0.003359 0.001250
  endloop
 endfacet
 facet normal -0.707107 -0.707107 0.000000
  outer loop
   vertex -0.003359 -0.005127 -0.001250
   vertex -0.005127 -0.003359 0.001250
   vertex -0.005127 -0.003359 -0.001250
  endloop
 endfacet
 facet normal 0.000000 0.000000 1.000000
  outer loop
   vertex 0.003359 -0.005127 -0.001250
   vertex 0.031643 -0.033411 -0.001250
   vertex 0.033411 -0.031643 -0.001250
  endloop
 endfacet
 facet normal -0.000000 0.000000 1.000000
  outer loop
   vertex 0.003359 -0.005127 -0.001250
   vertex 0.033411 -0.031643 -0.001250
   vertex 0.005127 -0.003359 -0.001250
  endloop
 endfacet
 facet normal -0.000000 0.000000 1.000000
  outer loop
   vertex 0.003359 -0.005127 0.001250
   vertex 0.033411 -0.031643 0.001250
   vertex 0.005127 -0.003359 0.001250
  endloop
 endfacet
 facet normal 0.000000 0.000000 -1.000000
  outer loop
   vertex 0.003359 -0.005127 0.001250
   vertex 0.005127 -0.003359 0.001250
   vertex 0.031643 -0.033411 0.001250
  endloop
 endfacet
 facet normal 0.707107 0.707107 -0.000000
  outer loop
   vertex 0.003359 -0.005127 -0.001250
   vertex 0.003359 -0.005127 0.001250
   vertex 0.031643 -0.033411 0.001250
  endloop
 endfacet
 facet normal 0.707107 0.707107 0.000000
  outer loop
   vertex 0.003359 -0.005127 -0.001250
   vertex 0.031643 -0.033411 0.001250
   vertex 0.031643 -0.033411 -0.001250
  endloop
 endfacet
 facet normal -0.749838 -0.661622 0.000000
  outer loop
   vertex 0.031643 -0.033411 -0.001250
   vertex 0.031643 -0.033411 0.001250
   vertex 0.005127 -0.003359 0.001250
  endloop
 endfacet
 facet normal -0.044108 0.044108 -0.998053
  outer loop
   vertex 0.031643 -0.033411 -0.001250
   vertex 0.005127 -0.003359 0.001250
   vertex 0.033411 -0.031643 -0.001250
  endloop
 endfacet
 facet normal 0.707107 0.707107 -0.000000
  outer loop
   vertex 0.033411 -0.031643 -0.001250
   vertex 0.005127 -0.003359 0.001250
   vertex 0.033411 -0.031643 0.001250
  endloop
 endfacet
 facet normal -0.707107 -0.707107 0.000000
  outer loop
   vertex 0.033411 -0.031643 -0.001250
   vertex 0.033411 -0.031643 0.001250
   vertex 0.005127 -0.003359 -0.001250
  endloop
 endfacet
 facet normal -0.468293 -0.530732 -0.706417
  outer loop
   vertex 0.005127 -0.003359 -0.001250
   vertex 0.033411 -0.031643 0.001250
   vertex 0.003359 -0.005127 0.001250
  endloop
 endfacet
 facet normal 0.707107 -0.707107 0.000000
  outer loop
   vertex 0.005127 -0.003359 -0.001250
   vertex 0.003359 -0.005127 0.001250
   vertex 0.003359 -0.005127 -0.001250
  endloop
 endfacet
 facet normal 0.980785 0.195090 0.000000
  outer loop
   vertex 0.035527 0.032527 0.000000
   vertex 0.035299 0.033675 0.000000
   vertex 0.035299 0.033675 0.010000
  endloop
 endfacet
 facet normal 0.980785 0.195090 -0.000000
  outer loop
   vertex 0.035527 0.032527 0.000000
   vertex 0.035299 0.033675 0.010000
   vertex 0.035527 0.032527 0.010000
  endloop
 endfacet
 facet normal 0.831470 0.555570 0.000000
  outer loop
   vertex 0.035299 0.033675 0.000000
   vertex 0.034648 0.034648 0.000000
   vertex 0.034648 0.034648 0.010000
  endloop
 endfacet
 facet normal 0.831470 0.555570 -0.000000
  outer loop
   vertex 0.035299 0.033675 0.000000
   vertex 0.034648 0.034648 0.010000
   vertex 0.035299 0.033675 0.010000
  endloop
 endfacet
 facet normal 0.555570 0.831470 0.000000
  outer loop
   vertex 0.034648 0.034648 0.000000
   vertex 0.033675 0.035299 0.000000
   vertex 0.033675 0.035299 0.010000
  endloop
 endfacet
 facet normal 0.555570 0.831470 -0.000000
  outer loop
   vertex 0.034648 0.034648 0.000000
   vertex 0.033675 0.035299 0.010000
   vertex 0.034648 0.034648 0.010000
  endloop
 endfacet
 facet normal 0.195090 0.980785 0.000000
  outer loop
   vertex 0.033675 0.035299 0.000000
   vertex 0.032527 0.035527 0.000000
   vertex 0.032527 0.035527 0.010000
  endloop
 endfacet
 facet normal 0.195090 0.980785 -0.000000
  outer loop
   vertex 0.033675 0.035299 0.000000
   vertex 0.032527 0.035527 0.010000
   vertex 0.033675 0.035299 0.010000
  endloop
 endfacet
 facet normal -0.195090 0.980785 0.000000
  outer loop
   vertex 0.032527 0.035527 0.000000
   vertex 0.031379 0.035299 0.000000
   vertex 0.031379 0.035299 0.010000
  endloop
 endfacet
 facet normal -0.195090 0.980785 0.000000
  outer loop
   vertex 0.032527 0.035527 0.000000
   vertex 0.031379 0.035299 0.010000
   vertex 0.032527 0.035527 0.010000
  endloop
 endfacet
 facet normal -0.555570 0.831470 0.000000
  outer loop
   vertex 0.031379 0.035299 0.000000
   vertex 0.030406 0.034648 0.000000
   vertex 0.030406 0.034648 0.010000
  endloop
 endfacet
 facet normal -0.555570 0.831470 0.000000
  outer loop
   vertex 0.031379 0.035299 0.000000
   vertex 0.030406 0.034648 0.010000
   vertex 0.031379 0.035299 0.010000
  endloop
 endfacet
 facet normal -0.831470 0.555570 0.000000
  outer loop
   vertex 0.030406 0.034648 0.000000
   vertex 0.029755 0.033675 0.000000
   vertex 0.029755 0.033675 0.010000
  endloop
 endfacet
 facet normal -0.831470 0.555570 0.000000
  outer loop
   vertex 0.030406 0.034648 0.000000
   vertex 0.029755 0.033675 0.010000
   vertex 0.030406 0.034648 0.010000
  endloop
 endfacet
 facet normal -0.980785 0.195090 0.000000
  outer loop
   vertex 0.029755 0.033675 0.000000
   vertex 0.029527 0.032527 0.000000
   vertex 0.029527 0.032527 0.010000
  endloop
 endfacet
 facet normal -0.980785 0.195090 0.000000
  outer loop
   vertex 0.029755 0.033675 0.000000
   vertex 0.029527 0.032527 0.010000
   vertex 0.029755 0.033675 0.010000
  endloop
 endfacet
 facet normal -0.980785 -0.195090 0.000000
  outer loop
   vertex 0.029527 0.032527 0.000000
   vertex 0.029755 0.031379 0.000000
   vertex 0.029755 0.031379 0.010000
  endloop
 endfacet
 facet normal -0.980785 -0.195090 0.000000
  outer loop
   vertex 0.029527 0.032527 0.000000
   vertex 0.029755 0.031379 0.010000
   vertex 0.029527 0.032527 0.010000
  endloop
 endfacet
 facet normal -0.831470 -0.555570 0.000000
  outer loop
   vertex 0.029755 0.031379 0.000000
   vertex 0.030406 0.030406 0.000000
   vertex 0.030406 0.030406 0.010000
  endloop
 endfacet
 facet normal -0.831470 -0.555570 0.000000
  outer loop
   vertex 0.029755 0.031379 0.000000
   vertex 0.030406 0.030406 0.010000
   vertex 0.029755 0.031379 0.010000
  endloop
 endfacet
 facet normal -0.555570 -0.831470 0.000000
  outer loop
   vertex 0.030406 0.030406 0.000000
   vertex 0.031379 0.029755 0.000000
   vertex 0.031379 0.029755 0.010000
  endloop
 endfacet
 facet normal -0.555570 -0.831470 0.000000
  outer loop
   vertex 0.030406 0.030406 0.000000
   vertex 0.031379 0.029755 0.010000
   vertex 0.030406 0.030406 0.010000
  endloop
 endfacet
 facet normal -0.195090 -0.980785 0.000000
  outer loop
   vertex 0.031379 0.029755 0.000000
   vertex 0.032527 0.029527 0.000000
   vertex 0.032527 0.029527 0.010000
  endloop
 endfacet
 facet normal -0.195090 -0.980785 0.000000
  outer loop
   vertex 0.031379 0.029755 0.000000
   vertex 0.032527 0.029527 0.010000
   vertex 0.031379 0.029755 0.010000
  endloop
 endfacet
 facet normal 0.195090 -0.980785 0.000000
  outer loop
   vertex 0.032527 0.029527 0.000000
   vertex 0.033675 0.029755 0.000000
   vertex 0.033675 0.029755 0.010000
  endloop
 endfacet
 facet normal 0.195090 -0.980785 0.000000
  outer loop
   vertex 0.032527 0.029527 0.000000
   vertex 0.033675 0.029755 0.010000
   vertex 0.032527 0.029527 0.010000
  endloop
 endfacet
 facet normal 0.555570 -0.831470 0.000000
  outer loop
   vertex 0.033675 0.029755 0.000000
   vertex 0.034648 0.030406 0.000000
   vertex 0.034648 0.030406 0.010000
  endloop
 endfacet
 facet normal 0.555570 -0.831470 0.000000
  outer loop
   vertex 0.033675 0.029755 0.000000
   vertex 0.034648 0.030406 0.010000
   vertex 0.033675 0.029755 0.010000
  endloop
 endfacet
 facet normal 0.831470 -0.555570 0.000000
  outer loop
   vertex 0.034648 0.030406 0.000000
   vertex 0.035299 0.031379 0.000000
   vertex 0.035299 0.031379 0.010000
  endloop
 endfacet
 facet normal 0.831470 -0.555570 0.000000
  outer loop
   vertex 0.034648 0.030406 0.000000
   vertex 0.035299 0.031379 0.010000
   vertex 0.034648 0.030406 0.010000
  endloop
 endfacet
 facet normal 0.980785 -0.195090 0.000000
  outer loop
   vertex 0.035299 0.031379 0.000000
   vertex 0.035527 0.032527 0.000000
   vertex 0.035527 0.032527 0.010000
  endloop
 endfacet
 facet normal 0.980785 -0.195090 0.000000
  outer loop
   vertex 0.035299 0.031379 0.000000
   vertex 0.035527 0.032527 0.010000
   vertex 0.035299 0.031379 0.010000
  endloop
 endfacet
 facet normal 0.000000 -0.000000 -1.000000
  outer loop
   vertex 0.035299 0.033675 0.000000
   vertex 0.035527 0.032527 0.000000
   vertex 0.032527 0.032527 0.000000
  endloop
 endfacet
 facet normal 0.000000 -0.000000 -1.000000
  outer loop
   vertex 0.034648 0.034648 0.000000
   vertex 0.035299 0.033675 0.000000
   vertex 0.032527 0.032527 0.000000
  endloop
 endfacet
 facet normal 0.000000 -0.000000 -1.000000
  outer loop
   vertex 0.033675 0.035299 0.000000
   vertex 0.034648 0.034648 0.000000
   vertex 0.032527 0.032527 0.000000
  endloop
 endfacet
 facet normal 0.000000 0.000000 -1.000000
  outer loop
   vertex 0.032527 0.035527 0.000000
   vertex 0.033675 0.035299 0.000000
   vertex 0.032527 0.032527 0.000000
  endloop
 endfacet
 facet normal 0.000000 0.000000 -1.000000
  outer loop
   vertex 0.031379 0.035299 0.000000
   vertex 0.032527 0.035527 0.000000
   vertex 0.032527 0.032527 0.000000
  endloop
 endfacet
 facet normal 0.000000 0.000000 -1.000000
  outer loop
   vertex 0.030406 0.034648 0.000000
   vertex 0.031379 0.035299 0.000000
   vertex 0.032527 0.032527 0.000000
  endloop
 endfacet
 facet normal 0.000000 0.000000 -1.000000
  outer loop
   vertex 0.029755 0.033675 0.000000
   vertex 0.030406 0.034648 0.000000
   vertex 0.032527 0.032527 0.000000
  endloop
 endfacet
 facet normal 0.000000 0.000000 -1.000000
  outer loop
   vertex 0.029527 0.032527 0.000000
   vertex 0.029755 0.033675 0.000000
   vertex 0.032527 0.032527 0.000000
  endloop
 endfacet
 facet normal 0.000000 0.000000 -1.000000
  outer loop
   vertex 0.029755 0.031379 0.000000
   vertex 0.029527 0.032527 0.000000
   vertex 0.032527 0.032527 0.000000
  endloop
 endfacet
 facet normal 0.000000 0.000000 -1.000000
  outer loop
   vertex 0.030406 0.030406 0.000000
   vertex 0.029755 0.031379 0.000000
   vertex 0.032527 0.032527 0.000000
  endloop
 endfacet
 facet normal 0.000000 0.000000 -1.000000
  outer loop
   vertex 0.031379 0.029755 0.000000
   vertex 0.030406 0.030406 0.000000
   vertex 0.032527 0.032527 0.000000
  endloop
 endfacet
 facet normal 0.000000 0.000000 -1.000000
  outer loop
   vertex 0.032527 0.029527 0.000000
   vertex 0.031379 0.029755 0.000000
   vertex 0.032527 0.032527 0.000000
  endloop
 endfacet
 facet normal -0.000000 0.000000 -1.000000
  outer loop
   vertex 0.033675 0.029755 0.000000
   vertex 0.032527 0.029527 0.000000
   vertex 0.032527 0.032527 0.000000
  endloop
 endfacet
 facet normal -0.000000 0.000000 -1.000000
  outer loop
   vertex 0.034648 0.030406 0.000000
   vertex 0.033675 0.029755 0.000000
   vertex 0.032527 0.032527 0.000000
  endloop
 endfacet
 facet normal -0.000000 0.000000 -1.000000
  outer loop
   vertex 0.035299 0.031379 0.000000
   vertex 0.034648 0.030406 0.000000
   vertex 0.032527 0.032527 0.000000
  endloop
 endfacet
 facet normal -0.000000 0.000000 -1.000000
  outer loop
   vertex 0.035527 0.032527 0.000000
   vertex 0.035299 0.031379 0.000000
   vertex 0.032527 0.032527 0.000000
  endloop
 endfacet
 facet normal 0.000000 0.000000 1.000000
  outer loop
   vertex 0.035527 0.032527 0.010000
   vertex 0.035299 0.033675 0.010000
   vertex 0.032527 0.032527 0.010000
  endloop
 endfacet
 facet normal 0.000000 0.000000 1.000000
  outer loop
   vertex 0.035299 0.033675 0.010000
   vertex 0.034648 0.034648 0.010000
   vertex 0.032527 0.032527 0.010000
  endloop
 endfacet
 facet normal 0.000000 0.000000 1.000000
  outer loop
   vertex 0.034648 0.034648 0.010000
   vertex 0.033675 0.035299 0.010000
   vertex 0.032527 0.032527 0.010000
  endloop
 endfacet
 facet normal 0.000000 0.000000 1.000000
  outer loop
   vertex 0.033675 0.035299 0.010000
   vertex 0.032527 0.035527 0.010000
   vertex 0.032527 0.032527 0.010000
  endloop
 endfacet
 facet normal 0.000000 0.000000 1.000000
  outer loop
   vertex 0.032527 0.035527 0.010000
   vertex 0.031379 0.035299 0.010000
   vertex 0.032527 0.032527 0.010000
  endloop
 endfacet
 facet normal 0.000000 0.000000 1.000000
  outer loop
   vertex 0.031379 0.035299 0.010000
   vertex 0.030406 0.034648 0.010000
   vertex 0.032527 0.032527 0.010000
  endloop
 endfacet
 facet normal 0.000000 0.000000 1.000000
  outer loop
   vertex 0.030406 0.034648 0.010000
   vertex 0.029755 0.033675 0.010000
   vertex 0.032527 0.032527 0.010000
  endloop
 endfacet
 facet normal 0.000000 0.000000 1.000000
  outer loop
   vertex 0.029755 0.033675 0.010000
   vertex 0.029527 0.032527 0.010000
   vertex 0.032527 0.032527 0.010000
  endloop
 endfacet
 facet normal -0.000000 0.000000 1.000000
  outer loop
   vertex 0.029527 0.032527 0.010000
   vertex 0.029755 0.031379 0.010000
   vertex 0.032527 0.032527 0.010000
  endloop
 endfacet
 facet normal -0.000000 0.000000 1.000000
  outer loop
   vertex 0.029755 0.031379 0.010000
   vertex 0.030406 0.030406 0.010000
   vertex 0.032527 0.032527 0.010000
  endloop
 endfacet
 facet normal -0.000000 0.000000 1.000000
  outer loop
   vertex 0.030406 0.030406 0.010000
   vertex 0.031379 0.029755 0.010000
   vertex 0.032527 0.032527 0.010000
  endloop
 endfacet
 facet normal -0.000000 0.000000 1.000000
  outer loop
   vertex 0.031379 0.029755 0.010000
   vertex 0.032527 0.029527 0.010000
   vertex 0.032527 0.032527 0.010000
  endloop
 endfacet
 facet normal 0.000000 0.000000 1.000000
  outer loop
   vertex 0.032527 0.029527 0.010000
   vertex 0.033675 0.029755 0.010000
   vertex 0.032527 0.032527 0.010000
  endloop
 endfacet
 facet normal 0.000000 -0.000000 1.000000
  outer loop
   vertex 0.033675 0.029755 0.010000
   vertex 0.034648 0.030406 0.010000
   vertex 0.032527 0.032527 0.010000
  endloop
 endfacet
 facet normal 0.000000 -0.000000 1.000000
  outer loop
   vertex 0.034648 0.030406 0.010000
   vertex 0.035299 0.031379 0.010000
   vertex 0.032527 0.032527 0.010000
  endloop
 endfacet
 facet normal 0.000000 -0.000000 1.000000
  outer loop
   vertex 0.035299 0.031379 0.010000
   vertex 0.035527 0.032527 0.010000
   vertex 0.032527 0.032527 0.010000
  endloop
 endfacet
 facet normal 0.980785 0.195090 0.000000
  outer loop
   vertex -0.029527 0.032527 0.000000
   vertex -0.029755 0.033675 0.000000
   vertex -0.029755 0.033675 0.010000
  endloop
 endfacet
 facet normal 0.980785 0.195090 -0.000000
  outer loop
   vertex -0.029527 0.032527 0.000000
   vertex -0.029755 0.033675 0.010000
   vertex -0.029527 0.032527 0.010000
  endloop
 endfacet
 facet normal 0.831470 0.555570 0.000000
  outer loop
   vertex -0.029755 0.033675 0.000000
   vertex -0.030406 0.034648 0.000000
   vertex -0.030406 0.034648 0.010000
  endloop
 endfacet
 facet normal 0.831470 0.555570 -0.000000
  outer loop
   vertex -0.029755 0.033675 0.000000
   vertex -0.030406 0.034648 0.010000
   vertex -0.029755 0.033675 0.010000
  endloop
 endfacet
 facet normal 0.555570 0.831470 0.000000
  outer loop
   vertex -0.030406 0.034648 0.000000
   vertex -0.031379 0.035299 0.000000
   vertex -0.031379 0.035299 0.010000
  endloop
 endfacet
 facet normal 0.555570 0.831470 -0.000000
  outer loop
   vertex -0.030406 0.034648 0.000000
   vertex -0.031379 0.035299 0.010000
   vertex -0.030406 0.034648 0.010000
  endloop
 endfacet
 facet normal 0.195090 0.980785 0.000000
  outer loop
   vertex -0.031379 0.035299 0.000000
   vertex -0.032527 0.035527 0.000000
   vertex -0.032527 0.035527 0.010000
  endloop
 endfacet
 facet normal 0.195090 0.980785 -0.000000
  outer loop
   vertex -0.031379 0.035299 0.000000
   vertex -0.032527 0.035527 0.010000
   vertex -0.031379 0.035299 0.010000
  endloop
 endfacet
 facet normal -0.195090 0.980785 0.000000
  outer loop
   vertex -0.032527 0.035527 0.000000
   vertex -0.033675 0.035299 0.000000
   vertex -0.033675 0.035299 0.010000
  endloop
 endfacet
 facet normal -0.195090 0.980785 0.000000
  outer loop
   vertex -0.032527 0.035527 0.000000
   vertex -0.033675 0.035299 0.010000
   vertex -0.032527 0.035527 0.010000
  endloop
 endfacet
 facet normal -0.555570 0.831470 0.000000
  outer loop
   vertex -0.033675 0.035299 0.000000
   vertex -0.034648 0.034648 0.000000
   vertex -0.034648 0.034648 0.010000
  endloop
 endfacet
 facet normal -0.555570 0.831470 0.000000
  outer loop
   vertex -0.033675 0.035299 0.000000
   vertex -0.034648 0.034648 0.010000
   vertex -0.033675 0.035299 0.010000
  endloop
 endfacet
 facet normal -0.831470 0.555570 0.000000
  outer loop
   vertex -0.034648 0.034648 0.000000
   vertex -0.035299 0.033675 0.000000
   vertex -0.035299 0.033675 0.010000
  endloop
 endfacet
 facet normal -0.831470 0.555570 0.000000
  outer loop
   vertex -0.034648 0.034648 0.000000
   vertex -0.035299 0.033675 0.010000
   vertex -0.034648 0.034648 0.010000
  endloop
 endfacet
 facet normal -0.980785 0.195090 0.000000
  outer loop
   vertex -0.035299 0.033675 0.000000
   vertex -0.035527 0.032527 0.000000
   vertex -0.035527 0.032527 0.010000
  endloop
 endfacet
 facet normal -0.980785 0.195090 0.000000
  outer loop
   vertex -0.035299 0.033675 0.000000
   vertex -0.035527 0.032527 0.010000
   vertex -0.035299 0.033675 0.010000
  endloop
 endfacet
 facet normal -0.980785 -0.195090 0.000000
  outer loop
   vertex -0.035527 0.032527 0.000000
   vertex -0.035299 0.031379 0.000000
   vertex -0.035299 0.031379 0.010000
  endloop
 endfacet
 facet normal -0.980785 -0.195090 0.000000
  outer loop
   vertex -0.035527 0.032527 0.000000
   vertex -0.035299 0.031379 0.010000
   vertex -0.035527 0.032527 0.010000
  endloop
 endfacet
 facet normal -0.831470 -0.555570 0.000000
  outer loop
   vertex -0.035299 0.031379 0.000000
   vertex -0.034648 0.030406 0.000000
   vertex -0.034648 0.030406 0.010000
  endloop
 endfacet
 facet normal -0.831470 -0.555570 0.000000
  outer loop
   vertex -0.035299 0.031379 0.000000
   vertex -0.034648 0.030406 0.010000
   vertex -0.035299 0.031379 0.010000
  endloop
 endfacet
 facet normal -0.555570 -0.831470 0.000000
  outer loop
   vertex -0.034648 0.030406 0.000000
   vertex -0.033675 0.029755 0.000000
   vertex -0.033675 0.029755 0.010000
  endloop
 endfacet
 facet normal -0.555570 -0.831470 0.000000
  outer loop
   vertex -0.034648 0.030406 0.000000
   vertex -0.033675 0.029755 0.010000
   vertex -0.034648 0.030406 0.010000
  endloop
 endfacet
 facet normal -0.195090 -0.980785 0.000000
  outer loop
   vertex -0.033675 0.029755 0.000000
   vertex -0.032527 0.029527 0.000000
   vertex -0.032527 0.029527 0.010000
  endloop
 endfacet
 facet normal -0.195090 -0.980785 0.000000
  outer loop
   vertex -0.033675 0.029755 0.000000
   vertex -0.032527 0.029527 0.010000
   vertex -0.033675 0.029755 0.010000
  endloop
 endfacet
 facet normal 0.195090 -0.980785 0.000000
  outer loop
   vertex -0.032527 0.029527 0.000000
   vertex -0.031379 0.029755 0.000000
   vertex -0.031379 0.029755 0.010000
  endloop
 endfacet
 facet normal 0.195090 -0.980785 0.000000
  outer loop
   vertex -0.032527 0.029527 0.000000
   vertex -0.031379 0.029755 0.010000
   vertex -0.032527 0.029527 0.010000
  endloop
 endfacet
 facet normal 0.555570 -0.831470 0.000000
  outer loop
   vertex -0.031379 0.029755 0.000000
   vertex -0.030406 0.030406 0.000000
   vertex -0.030406 0.030406 0.010000
  endloop
 endfacet
 facet normal 0.555570 -0.831470 0.000000
  outer loop
   vertex -0.031379 0.029755 0.000000
   vertex -0.030406 0.030406 0.010000
   vertex -0.031379 0.029755 0.010000
  endloop
 endfacet
 facet normal 0.831470 -0.555570 0.000000
  outer loop
   vertex -0.030406 0.030406 0.000000
   vertex -0.029755 0.031379 0.000000
   vertex -0.029755 0.031379 0.010000
  endloop
 endfacet
 facet normal 0.831470 -0.555570 0.000000
  outer loop
   vertex -0.030406 0.030406 0.000000
   vertex -0.029755 0.031379 0.010000
   vertex -0.030406 0.030406 0.010000
  endloop
 endfacet
 facet normal 0.980785 -0.195090 0.000000
  outer loop
   vertex -0.029755 0.031379 0.000000
   vertex -0.029527 0.032527 0.000000
   vertex -0.029527 0.032527 0.010000
  endloop
 endfacet
 facet normal 0.980785 -0.195090 0.000000
  outer loop
   vertex -0.029755 0.031379 0.000000
   vertex -0.029527 0.032527 0.010000
   vertex -0.029755 0.031379 0.010000
  endloop
 endfacet
 facet normal 0.000000 -0.000000 -1.000000
  outer loop
   vertex -0.029755 0.033675 0.000000
   vertex -0.029527 0.032527 0.000000
   vertex -0.032527 0.032527 0.000000
  endloop
 endfacet
 facet normal 0.000000 -0.000000 -1.000000
  outer loop
   vertex -0.030406 0.034648 0.000000
   vertex -0.029755 0.033675 0.000000
   vertex -0.032527 0.032527 0.000000
  endloop
 endfacet
 facet normal 0.000000 -0.000000 -1.000000
  outer loop
   vertex -0.031379 0.035299 0.000000
   vertex -0.030406 0.034648 0.000000
   vertex -0.032527 0.032527 0.000000
  endloop
 endfacet
 facet normal 0.000000 0.000000 -1.000000
  outer loop
   vertex -0.032527 0.035527 0.000000
   vertex -0.031379 0.035299 0.000000
   vertex -0.032527 0.032527 0.000000
  endloop
 endfacet
 facet normal 0.000000 0.000000 -1.000000
  outer loop
   vertex -0.033675 0.035299 0.000000
   vertex -0.032527 0.035527 0.000000
   vertex -0.032527 0.032527 0.000000
  endloop
 endfacet
 facet normal 0.000000 0.000000 -1.000000
  outer loop
   vertex -0.034648 0.034648 0.000000
   vertex -0.033675 0.035299 0.000000
   vertex -0.032527 0.032527 0.000000
  endloop
 endfacet
 facet normal 0.000000 0.000000 -1.000000
  outer loop
   vertex -0.035299 0.033675 0.000000
   vertex -0.034648 0.034648 0.000000
   vertex -0.032527 0.032527 0.000000
  endloop
 endfacet
 facet normal 0.000000 0.000000 -1.000000
  outer loop
   vertex -0.035527 0.032527 0.000000
   vertex -0.035299 0.033675 0.000000
   vertex -0.032527 0.032527 0.000000
  endloop
 endfacet
 facet normal 0.000000 0.000000 -1.000000
  outer loop
   vertex -0.035299 0.031379 0.000000
   vertex -0.035527 0.032527 0.000000
   vertex -0.032527 0.032527 0.000000
  endloop
 endfacet
 facet normal 0.000000 0.000000 -1.000000
  outer loop
   vertex -0.034648 0.030406 0.000000
   vertex -0.035299 0.031379 0.000000
   vertex -0.032527 0.032527 0.000000
  endloop
 endfacet
 facet normal 0.000000 0.000000 -1.000000
  outer loop
   vertex -0.033675 0.029755 0.000000
   vertex -0.034648 0.030406 0.000000
   vertex -0.032527 0.032527 0.000000
  endloop
 endfacet
 facet normal 0.000000 0.000000 -1.000000
  outer loop
   vertex -0.032527 0.029527 0.000000
   vertex -0.033675 0.029755 0.000000
   vertex -0.032527 0.032527 0.000000
  endloop
 endfacet
 facet normal -0.000000 0.000000 -1.000000
  outer loop
   vertex -0.031379 0.029755 0.000000
   vertex -0.032527 0.029527 0.000000
   vertex -0.032527 0.032527 0.000000
  endloop
 endfacet
 facet normal -0.000000 0.000000 -1.000000
  outer loop
   vertex -0.030406 0.030406 0.000000
   vertex -0.031379 0.029755 0.000000
   vertex -0.032527 0.032527 0.000000
  endloop
 endfacet
 facet normal -0.000000 0.000000 -1.000000
  outer loop
   vertex -0.029755 0.031379 0.000000
   vertex -0.030406 0.030406 0.000000
   vertex -0.032527 0.032527 0.000000
  endloop
 endfacet
 facet normal -0.000000 0.000000 -1.000000
  outer loop
   vertex -0.029527 0.032527 0.000000
   vertex -0.029755 0.031379 0.000000
   vertex -0.032527 0.032527 0.000000
  endloop
 endfacet
 facet normal 0.000000 0.000000 1.000000
  outer loop
   vertex -0.029527 0.032527 0.010000
   vertex -0.029755 0.033675 0.010000
   vertex -0.032527 0.032527 0.010000
  endloop
 endfacet
 facet normal 0.000000 0.000000 1.000000
  outer loop
   vertex -0.029755 0.033675 0.010000
   vertex -0.030406 0.034648 0.010000
   vertex -0.032527 0.032527 0.010000
  endloop
 endfacet
 facet normal 0.000000 0.000000 1.000000
  outer loop
   vertex -0.030406 0.034648 0.010000
   vertex -0.031379 0.035299 0.010000
   vertex -0.032527 0.032527 0.010000
  endloop
 endfacet
 facet normal 0.000000 0.000000 1.000000
  outer loop
   vertex -0.031379 0.035299 0.010000
   vertex -0.032527 0.035527 0.010000
   vertex -0.032527 0.032527 0.010000
  endloop
 endfacet
 facet normal 0.000000 0.000000 1.000000
  outer loop
   vertex -0.032527 0.035527 0.010000
   vertex -0.033675 0.035299 0.010000
   vertex -0.032527 0.032527 0.010000
  endloop
 endfacet
 facet normal 0.000000 0.000000 1.000000
  outer loop
   vertex -0.033675 0.035299 0.010000
   vertex -0.034648 0.034648 0.010000
   vertex -0.032527 0.032527 0.010000
  endloop
 endfacet
 facet normal 0.000000 0.000000 1.000000
  outer loop
   vertex -0.034648 0.034648 0.010000
   vertex -0.035299 0.033675 0.010000
   vertex -0.032527 0.032527 0.010000
  endloop
 endfacet
 facet normal 0.000000 0.000000 1.000000
  outer loop
   vertex -0.035299 0.033675 0.010000
   vertex -0.035527 0.032527 0.010000
   vertex -0.032527 0.032527 0.010000
  endloop
 endfacet
 facet normal -0.000000 0.000000 1.000000
  outer loop
   vertex -0.035527 0.032527 0.010000
   vertex -0.035299 0.031379 0.010000
   vertex -0.032527 0.032527 0.010000
  endloop
 endfacet
 facet normal -0.000000 0.000000 1.000000
  outer loop
   vertex -0.035299 0.031379 0.010000
   vertex -0.034648 0.030406 0.010000
   vertex -0.032527 0.032527 0.010000
  endloop
 endfacet
 facet normal -0.000000 0.000000 1.000000
  outer loop
   vertex -0.034648 0.030406 0.010000
   vertex -0.033675 0.029755 0.010000
   vertex -0.032527 0.032527 0.010000
  endloop
 endfacet
 facet normal -0.000000 0.000000 1.000000
  outer loop
   vertex -0.033675 0.029755 0.010000
   vertex -0.032527 0.029527 0.010000
   vertex -0.032527 0.032527 0.010000
  endloop
 endfacet
 facet normal 0.000000 0.000000 1.000000
  outer loop
   vertex -0.032527 0.029527 0.010000
   vertex -0.031379 0.029755 0.010000
   vertex -0.032527 0.032527 0.010000
  endloop
 endfacet
 facet normal 0.000000 -0.000000 1.000000
  outer loop
   vertex -0.031379 0.029755 0.010000
   vertex -0.030406 0.030406 0.010000
   vertex -0.032527 0.032527 0.010000
  endloop
 endfacet
 facet normal 0.000000 -0.000000 1.000000
  outer loop
   vertex -0.030406 0.030406 0.010000
   vertex -0.029755 0.031379 0.010000
   vertex -0.032527 0.032527 0.010000
  endloop
 endfacet
 facet normal 0.000000 -0.000000 1.000000
  outer loop
   vertex -0.029755 0.031379 0.010000
   vertex -0.029527 0.032527 0.010000
   vertex -0.032527 0.032527 0.010000
  endloop
 endfacet
 facet normal 0.980785 0.195090 0.000000
  outer loop
   vertex -0.029527 -0.032527 0.000000
   vertex -0.029755 -0.031379 0.000000
   vertex -0.029755 -0.031379 0.010000
  endloop
 endfacet
 facet normal 0.980785 0.195090 -0.000000
  outer loop
   vertex -0.029527 -0.032527 0.000000
   vertex -0.029755 -0.031379 0.010000
   vertex -0.029527 -0.032527 0.010000
  endloop
 endfacet
 facet normal 0.831470 0.555570 0.000000
  outer loop
   vertex -0.029755 -0.031379 0.000000
   vertex -0.030406 -0.030406 0.000000
   vertex -0.030406 -0.030406 0.010000
  endloop
 endfacet
 facet normal 0.831470 0.555570 -0.000000
  outer loop
   vertex -0.029755 -0.031379 0.000000
   vertex -0.030406 -0.030406 0.010000
   vertex -0.029755 -0.031379 0.010000
  endloop
 endfacet
 facet normal 0.555570 0.831470 0.000000
  outer loop
   vertex -0.030406 -0.030406 0.000000
   vertex -0.031379 -0.029755 0.000000
   vertex -0.031379 -0.029755 0.010000
  endloop
 endfacet
 facet normal 0.555570 0.831470 -0.000000
  outer loop
   vertex -0.030406 -0.030406 0.000000
   vertex -0.031379 -0.029755 0.010000
   vertex -0.030406 -0.030406 0.010000
  endloop
 endfacet
 facet normal 0.195090 0.980785 0.000000
  outer loop
   vertex -0.031379 -0.029755 0.000000
   vertex -0.032527 -0.029527 0.000000
   vertex -0.032527 -0.029527 0.010000
  endloop
 endfacet
 facet normal 0.195090 0.980785 -0.000000
  outer loop
   vertex -0.031379 -0.029755 0.000000
   vertex -0.032527 -0.029527 0.010000
   vertex -0.031379 -0.029755 0.010000
  endloop
 endfacet
 facet normal -0.195090 0.980785 0.000000
  outer loop
   vertex -0.032527 -0.029527 0.000000
   vertex -0.033675 -0.029755 0.000000
   vertex -0.033675 -0.029755 0.010000
  endloop
 endfacet
 facet normal -0.195090 0.980785 0.000000
  outer loop
   vertex -0.032527 -0.029527 0.000000
   vertex -0.033675 -0.029755 0.010000
   vertex -0.032527 -0.029527 0.010000
  endloop
 endfacet
 facet normal -0.555570 0.831470 0.000000
  outer loop
   vertex -0.033675 -0.029755 0.000000
   vertex -0.034648 -0.030406 0.000000
   vertex -0.034648 -0.030406 0.010000
  endloop
 endfacet
 facet normal -0.555570 0.831470 0.000000
  outer loop
   vertex -0.033675 -0.029755 0.000000
   vertex -0.034648 -0.030406 0.010000
   vertex -0.033675 -0.029755 0.010000
  endloop
 endfacet
 facet normal -0.831470 0.555570 0.000000
  outer loop
   vertex -0.034648 -0.030406 0.000000
   vertex -0.035299 -0.031379 0.000000
   vertex -0.035299 -0.031379 0.010000
  endloop
 endfacet
 facet normal -0.831470 0.555570 0.000000
  outer loop
   vertex -0.034648 -0.030406 0.000000
   vertex -0.035299 -0.031379 0.010000
   vertex -0.034648 -0.030406 0.010000
  endloop
 endfacet
 facet normal -0.980785 0.195090 0.000000
  outer loop
   vertex -0.035299 -0.031379 0.000000
   vertex -0.035527 -0.032527 0.000000
   vertex -0.035527 -0.032527 0.010000
  endloop
 endfacet
 facet normal -0.980785 0.195090 0.000000
  outer loop
   vertex -0.035299 -0.031379 0.000000
   vertex -0.035527 -0.032527 0.010000
   vertex -0.035299 -0.031379 0.010000
  endloop
 endfacet
 facet normal -0.980785 -0.195090 0.000000
  outer loop
   vertex -0.035527 -0.032527 0.000000
   vertex -0.035299 -0.033675 0.000000
   vertex -0.035299 -0.033675 0.010000
  endloop
 endfacet
 facet normal -0.980785 -0.195090 0.000000
  outer loop
   vertex -0.035527 -0.032527 0.000000
   vertex -0.035299 -0.033675 0.010000
   vertex -0.035527 -0.032527 0.010000
  endloop
 endfacet
 facet normal -0.831470 -0.555570 0.000000
  outer loop
   vertex -0.035299 -0.033675 0.000000
   vertex -0.034648 -0.034648 0.000000
   vertex -0.034648 -0.034648 0.010000
  endloop
 endfacet
 facet normal -0.831470 -0.555570 0.000000
  outer loop
   vertex -0.035299 -0.033675 0.000000
   vertex -0.034648 -0.034648 0.010000
   vertex -0.035299 -0.033675 0.010000
  endloop
 endfacet
 facet normal -0.555570 -0.831470 0.000000
  outer loop
   vertex -0.034648 -0.034648 0.000000
   vertex -0.033675 -0.035299 0.000000
   vertex -0.033675 -0.035299 0.010000
  endloop
 endfacet
 facet normal -0.555570 -0.831470 0.000000
  outer loop
   vertex -0.034648 -0.034648 0.000000
   vertex -0.033675 -0.035299 0.010000
   vertex -0.034648 -0.034648 0.010000
  endloop
 endfacet
 facet normal -0.195090 -0.980785 0.000000
  outer loop
   vertex -0.033675 -0.035299 0.000000
   vertex -0.032527 -0.035527 0.000000
   vertex -0.032527 -0.035527 0.010000
  endloop
 endfacet
 facet normal -0.195090 -0.980785 0.000000
  outer loop
   vertex -0.033675 -0.035299 0.000000
   vertex -0.032527 -0.035527 0.010000
   vertex -0.033675 -0.035299 0.010000
  endloop
 endfacet
 facet normal 0.195090 -0.980785 0.000000
  outer loop
   vertex -0.032527 -0.035527 0.000000
   vertex -0.031379 -0.035299 0.000000
   vertex -0.031379 -0.035299 0.010000
  endloop
 endfacet
 facet normal 0.195090 -0.980785 0.000000
  outer loop
   vertex -0.032527 -0.035527 0.000000
   vertex -0.031379 -0.035299 0.010000
   vertex -0.032527 -0.035527 0.010000
  endloop
 endfacet
 facet normal 0.555570 -0.831470 0.000000
  outer loop
   vertex -0.031379 -0.035299 0.000000
   vertex -0.030406 -0.034648 0.000000
   vertex -0.030406 -0.034648 0.010000
  endloop
 endfacet
 facet normal 0.555570 -0.831470 0.000000
  outer loop
   vertex -0.031379 -0.035299 0.000000
   vertex -0.030406 -0.034648 0.010000
   vertex -0.031379 -0.035299 0.010000
  endloop
 endfacet
 facet normal 0.831470 -0.555570 0.000000
  outer loop
   vertex -0.030406 -0.034648 0.000000
   vertex -0.029755 -0.033675 0.000000
   vertex -0.029755 -0.033675 0.010000
  endloop
 endfacet
 facet normal 0.831470 -0.555570 0.000000
  outer loop
   vertex -0.030406 -0.034648 0.000000
   vertex -0.029755 -0.033675 0.010000
   vertex -0.030406 -0.034648 0.010000
  endloop
 endfacet
 facet normal 0.980785 -0.195090 0.000000
  outer loop
   vertex -0.029755 -0.033675 0.000000
   vertex -0.029527 -0.032527 0.000000
   vertex -0.029527 -0.032527 0.010000
  endloop
 endfacet
 facet normal 0.980785 -0.195090 0.000000
  outer loop
   vertex -0.029755 -0.033675 0.000000
   vertex -0.029527 -0.032527 0.010000
   vertex -0.029755 -0.033675 0.010000
  endloop
 endfacet
 facet normal 0.000000 -0.000000 -1.000000
  outer loop
   vertex -0.029755 -0.031379 0.000000
   vertex -0.029527 -0.032527 0.000000
   vertex -0.032527 -0.032527 0.000000
  endloop
 endfacet
 facet normal 0.000000 -0.000000 -1.000000
  outer loop
   vertex -0.030406 -0.030406 0.000000
   vertex -0.029755 -0.031379 0.000000
   vertex -0.032527 -0.032527 0.000000
  endloop
 endfacet
 facet normal 0.000000 -0.000000 -1.000000
  outer loop
   vertex -0.031379 -0.029755 0.000000
   vertex -0.030406 -0.030406 0.000000
   vertex -0.032527 -0.032527 0.000000
  endloop
 endfacet
 facet normal 0.000000 0.000000 -1.000000
  outer loop
   vertex -0.032527 -0.029527 0.000000
   vertex -0.031379 -0.029755 0.000000
   vertex -0.032527 -0.032527 0.000000
  endloop
 endfacet
 facet normal 0.000000 0.000000 -1.000000
  outer loop
   vertex -0.033675 -0.029755 0.000000
   vertex -0.032527 -0.029527 0.000000
   vertex -0.032527 -0.032527 0.000000
  endloop
 endfacet
 facet normal 0.000000 0.000000 -1.000000
  outer loop
   vertex -0.034648 -0.030406 0.000000
   vertex -0.033675 -0.029755 0.000000
   vertex -0.032527 -0.032527 0.000000
  endloop
 endfacet
 facet normal 0.000000 0.000000 -1.000000
  outer loop
   vertex -0.035299 -0.031379 0.000000
   vertex -0.034648 -0.030406 0.000000
   vertex -0.032527 -0.032527 0.000000
  endloop
 endfacet
 facet normal 0.000000 0.000000 -1.000000
  outer loop
   vertex -0.035527 -0.032527 0.000000
   vertex -0.035299 -0.031379 0.000000
   vertex -0.032527 -0.032527 0.000000
  endloop
 endfacet
 facet normal 0.000000 0.000000 -1.000000
  outer loop
   vertex -0.035299 -0.033675 0.000000
   vertex -0.035527 -0.032527 0.000000
   vertex -0.032527 -0.032527 0.000000
  endloop
 endfacet
 facet normal 0.000000 0.000000 -1.000000
  outer loop
   vertex -0.034648 -0.034648 0.000000
   vertex -0.035299 -0.033675 0.000000
   vertex -0.032527 -0.032527 0.000000
  endloop
 endfacet
 facet normal 0.000000 0.000000 -1.000000
  outer loop
   vertex -0.033675 -0.035299 0.000000
   vertex -0.034648 -0.034648 0.000000
   vertex -0.032527 -0.032527 0.000000
  endloop
 endfacet
 facet normal 0.000000 0.000000 -1.000000
  outer loop
   vertex -0.032527 -0.035527 0.000000
   vertex -0.033675 -0.035299 0.000000
   vertex -0.032527 -0.032527 0.000000
  endloop
 endfacet
 facet normal -0.000000 0.000000 -1.000000
  outer loop
   vertex -0.031379 -0.035299 0.000000
   vertex -0.032527 -0.035527 0.000000
   vertex -0.032527 -0.032527 0.000000
  endloop
 endfacet
 facet normal -0.000000 0.000000 -1.000000
  outer loop
   vertex -0.030406 -0.034648 0.000000
   vertex -0.031379 -0.035299 0.000000
   vertex -0.032527 -0.032527 0.000000
  endloop
 endfacet
 facet normal -0.000000 0.000000 -1.000000
  outer loop
   vertex -0.029755 -0.033675 0.000000
   vertex -0.030406 -0.034648 0.000000
   vertex -0.032527 -0.032527 0.000000
  endloop
 endfacet
 facet normal -0.000000 0.000000 -1.000000
  outer loop
   vertex -0.029527 -0.032527 0.000000
   vertex -0.029755 -0.033675 0.000000
   vertex -0.032527 -0.032527 0.000000
  endloop
 endfacet
 facet normal 0.000000 0.000000 1.000000
  outer loop
   vertex -0.029527 -0.032527 0.010000
   vertex -0.029755 -0.031379 0.010000
   vertex -0.032527 -0.032527 0.010000
  endloop
 endfacet
 facet normal 0.000000 0.000000 1.000000
  outer loop
   vertex -0.029755 -0.031379 0.010000
   vertex -0.030406 -0.030406 0.010000
   vertex -0.032527 -0.032527 0.010000
  endloop
 endfacet
 facet normal 0.000000 0.000000 1.000000
  outer loop
   vertex -0.030406 -0.030406 0.010000
   vertex -0.031379 -0.029755 0.010000
   vertex -0.032527 -0.032527 0.010000
  endloop
 endfacet
 facet normal 0.000000 0.000000 1.000000
  outer loop
   vertex -0.031379 -0.029755 0.010000
   vertex -0.032527 -0.029527 0.010000
   vertex -0.032527 -0.032527 0.010000
  endloop
 endfacet
 facet normal 0.000000 0.000000 1.000000
  outer loop
   vertex -0.032527 -0.029527 0.010000
   vertex -0.033675 -0.029755 0.010000
   vertex -0.032527 -0.032527 0.010000
  endloop
 endfacet
 facet normal 0.000000 0.000000 1.000000
  outer loop
   vertex -0.033675 -0.029755 0.010000
   vertex -0.034648 -0.030406 0.010000
   vertex -0.032527 -0.032527 0.010000
  endloop
 endfacet
 facet normal 0.000000 0.000000 1.000000
  outer loop
   vertex -0.034648 -0.030406 0.010000
   vertex -0.035299 -0.031379 0.010000
   vertex -0.032527 -0.032527 0.010000
  endloop
 endfacet
 facet normal 0.000000 0.000000 1.000000
  outer loop
   vertex -0.035299 -0.031379 0.010000
   vertex -0.035527 -0.032527 0.010000
   vertex -0.032527 -0.032527 0.010000
  endloop
 endfacet
 facet normal -0.000000 0.000000 1.000000
  outer loop
   vertex -0.035527 -0.032527 0.010000
   vertex -0.035299 -0.033675 0.010000
   vertex -0.032527 -0.032527 0.010000
  endloop
 endfacet
 facet normal -0.000000 0.000000 1.000000
  outer loop
   vertex -0.035299 -0.033675 0.010000
   vertex -0.034648 -0.034648 0.010000
   vertex -0.032527 -0.032527 0.010000
  endloop
 endfacet
 facet normal -0.000000 0.000000 1.000000
  outer loop
   vertex -0.034648 -0.034648 0.010000
   vertex -0.033675 -0.035299 0.010000
   vertex -0.032527 -0.032527 0.010000
  endloop
 endfacet
 facet normal -0.000000 0.000000 1.000000
  outer loop
   vertex -0.033675 -0.035299 0.010000
   vertex -0.032527 -0.035527 0.010000
   vertex -0.032527 -0.032527 0.010000
  endloop
 endfacet
 facet normal 0.000000 0.000000 1.000000
  outer loop
   vertex -0.032527 -0.035527 0.010000
   vertex -0.031379 -0.035299 0.010000
   vertex -0.032527 -0.032527 0.010000
  endloop
 endfacet
 facet normal 0.000000 -0.000000 1.000000
  outer loop
   vertex -0.031379 -0.035299 0.010000
   vertex -0.030406 -0.034648 0.010000
   vertex -0.032527 -0.032527 0.010000
  endloop
 endfacet
 facet normal 0.000000 -0.000000 1.000000
  outer loop
   vertex -0.030406 -0.034648 0.010000
   vertex -0.029755 -0.033675 0.010000
   vertex -0.032527 -0.032527 0.010000
  endloop
 endfacet
 facet normal 0.000000 -0.000000 1.000000
  outer loop
   vertex -0.029755 -0.033675 0.010000
   vertex -0.029527 -0.032527 0.010000
   vertex -0.032527 -0.032527 0.010000
  endloop
 endfacet
 facet normal 0.980785 0.195090 0.000000
  outer loop
   vertex 0.035527 -0.032527 0.000000
   vertex 0.035299 -0.031379 0.000000
   vertex 0.035299 -0.031379 0.010000
  endloop
 endfacet
 facet normal 0.980785 0.195090 -0.000000
  outer loop
   vertex 0.035527 -0.032527 0.000000
   vertex 0.035299 -0.031379 0.010000
   vertex 0.035527 -0.032527 0.010000
  endloop
 endfacet
 facet normal 0.831470 0.555570 0.000000
  outer loop
   vertex 0.035299 -0.031379 0.000000
   vertex 0.034648 -0.030406 0.000000
   vertex 0.034648 -0.030406 0.010000
  endloop
 endfacet
 facet normal 0.831470 0.555570 -0.000000
  outer loop
   vertex 0.035299 -0.031379 0.000000
   vertex 0.034648 -0.030406 0.010000
   vertex 0.035299 -0.031379 0.010000
  endloop
 endfacet
 facet normal 0.555570 0.831470 0.000000
  outer loop
   vertex 0.034648 -0.030406 0.000000
   vertex 0.033675 -0.029755 0.000000
   vertex 0.033675 -0.029755 0.010000
  endloop
 endfacet
 facet normal 0.555570 0.831470 -0.000000
  outer loop
   vertex 0.034648 -0.030406 0.000000
   vertex 0.033675 -0.029755 0.010000
   vertex 0.034648 -0.030406 0.010000
  endloop
 endfacet
 facet normal 0.195090 0.980785 0.000000
  outer loop
   vertex 0.033675 -0.029755 0.000000
   vertex 0.032527 -0.029527 0.000000
   vertex 0.032527 -0.029527 0.010000
  endloop
 endfacet
 facet normal 0.195090 0.980785 -0.000000
  outer loop
   vertex 0.033675 -0.029755 0.000000
   vertex 0.032527 -0.029527 0.010000
   vertex 0.033675 -0.029755 0.010000
  endloop
 endfacet
 facet normal -0.195090 0.980785 0.000000
  outer loop
   vertex 0.032527 -0.029527 0.000000
   vertex 0.031379 -0.029755 0.000000
   vertex 0.031379 -0.029755 0.010000
  endloop
 endfacet
 facet normal -0.195090 0.980785 0.000000
  outer loop
   vertex 0.032527 -0.029527 0.000000
   vertex 0.031379 -0.029755 0.010000
   vertex 0.032527 -0.029527 0.010000
  endloop
 endfacet
 facet normal -0.555570 0.831470 0.000000
  outer loop
   vertex 0.031379 -0.029755 0.000000
   vertex 0.030406 -0.030406 0.000000
   vertex 0.030406 -0.030406 0.010000
  endloop
 endfacet
 facet normal -0.555570 0.831470 0.000000
  outer loop
   vertex 0.031379 -0.029755 0.000000
   vertex 0.030406 -0.030406 0.010000
   vertex 0.031379 -0.029755 0.010000
  endloop
 endfacet
 facet normal -0.831470 0.555570 0.000000
  outer loop
   vertex 0.030406 -0.030406 0.000000
   vertex 0.029755 -0.031379 0.000000
   vertex 0.029755 -0.031379 0.010000
  endloop
 endfacet
 facet normal -0.831470 0.555570 0.000000
  outer loop
   vertex 0.030406 -0.030406 0.000000
   vertex 0.029755 -0.031379 0.010000
   vertex 0.030406 -0.030406 0.010000
  endloop
 endfacet
 facet normal -0.980785 0.195090 0.000000
  outer loop
   vertex 0.029755 -0.031379 0.000000
   vertex 0.029527 -0.032527 0.000000
   vertex 0.029527 -0.032527 0.010000
  endloop
 endfacet
 facet normal -0.980785 0.195090 0.000000
  outer loop
   vertex 0.029755 -0.031379 0.000000
   vertex 0.029527 -0.032527 0.010000
   vertex 0.029755 -0.031379 0.010000
  endloop
 endfacet
 facet normal -0.980785 -0.195090 0.000000
  outer loop
   vertex 0.029527 -0.032527 0.000000
   vertex 0.029755 -0.033675 0.000000
   vertex 0.029755 -0.033675 0.010000
  endloop
 endfacet
 facet normal -0.980785 -0.195090 0.000000
  outer loop
   vertex 0.029527 -0.032527 0.000000
   vertex 0.029755 -0.033675 0.010000
   vertex 0.029527 -0.032527 0.010000
  endloop
 endfacet
 facet normal -0.831470 -0.555570 0.000000
  outer loop
   vertex 0.029755 -0.033675 0.000000
   vertex 0.030406 -0.034648 0.000000
   vertex 0.030406 -0.034648 0.010000
  endloop
 endfacet
 facet normal -0.831470 -0.555570 0.000000
  outer loop
   vertex 0.029755 -0.033675 0.000000
   vertex 0.030406 -0.034648 0.010000
   vertex 0.029755 -0.033675 0.010000
  endloop
 endfacet
 facet normal -0.555570 -0.831470 0.000000
  outer loop
   vertex 0.030406 -0.034648 0.000000
   vertex 0.031379 -0.035299 0.000000
   vertex 0.031379 -0.035299 0.010000
  endloop
 endfacet
 facet normal -0.555570 -0.831470 0.000000
  outer loop
   vertex 0.030406 -0.034648 0.000000
   vertex 0.031379 -0.035299 0.010000
   vertex 0.030406 -0.034648 0.010000
  endloop
 endfacet
 facet normal -0.195090 -0.980785 0.000000
  outer loop
   vertex 0.031379 -0.035299 0.000000
   vertex 0.032527 -0.035527 0.000000
   vertex 0.032527 -0.035527 0.010000
  endloop
 endfacet
 facet normal -0.195090 -0.980785 0.000000
  outer loop
   vertex 0.031379 -0.035299 0.000000
   vertex 0.032527 -0.035527 0.010000
   vertex 0.031379 -0.035299 0.010000
  endloop
 endfacet
 facet normal 0.195090 -0.980785 0.000000
  outer loop
   vertex 0.032527 -0.035527 0.000000
   vertex 0.033675 -0.035299 0.000000
   vertex 0.033675 -0.035299 0.010000
  endloop
 endfacet
 facet normal 0.195090 -0.980785 0.000000
  outer loop
   vertex 0.032527 -0.035527 0.000000
   vertex 0.033675 -0.035299 0.010000
   vertex 0.032527 -0.035527 0.010000
  endloop
 endfacet
 facet normal 0.555570 -0.831470 0.000000
  outer loop
   vertex 0.033675 -0.035299 0.000000
   vertex 0.034648 -0.034648 0.000000
   vertex 0.034648 -0.034648 0.010000
  endloop
 endfacet
 facet normal 0.555570 -0.831470 0.000000
  outer loop
   vertex 0.033675 -0.035299 0.000000
   vertex 0.034648 -0.034648 0.010000
   vertex 0.033675 -0.035299 0.010000
  endloop
 endfacet
 facet normal 0.831470 -0.555570 0.000000
  outer loop
   vertex 0.034648 -0.034648 0.000000
   vertex 0.035299 -0.033675 0.000000
   vertex 0.035299 -0.033675 0.010000
  endloop
 endfacet
 facet normal 0.831470 -0.555570 0.000000
  outer loop
   vertex 0.034648 -0.034648 0.000000
   vertex 0.035299 -0.033675 0.010000
   vertex 0.034648 -0.034648 0.010000
  endloop
 endfacet
 facet normal 0.980785 -0.195090 0.000000
  outer loop
   vertex 0.035299 -0.033675 0.000000
   vertex 0.035527 -0.032527 0.000000
   vertex 0.035527 -0.032527 0.010000
  endloop
 endfacet
 facet normal 0.980785 -0.195090 0.000000
  outer loop
   vertex 0.035299 -0.033675 0.000000
   vertex 0.035527 -0.032527 0.010000
   vertex 0.035299 -0.033675 0.010000
  endloop
 endfacet
 facet normal 0.000000 -0.000000 -1.000000
  outer loop
   vertex 0.035299 -0.031379 0.000000
   vertex 0.035527 -0.032527 0.000000
   vertex 0.032527 -0.032527 0.000000
  endloop
 endfacet
 facet normal 0.000000 -0.000000 -1.000000
  outer loop
   vertex 0.034648 -0.030406 0.000000
   vertex 0.035299 -0.031379 0.000000
   vertex 0.032527 -0.032527 0.000000
  endloop
 endfacet
 facet normal 0.000000 -0.000000 -1.000000
  outer loop
   vertex 0.033675 -0.029755 0.000000
   vertex 0.034648 -0.030406 0.000000
   vertex 0.032527 -0.032527 0.000000
  endloop
 endfacet
 facet normal 0.000000 0.000000 -1.000000
  outer loop
   vertex 0.032527 -0.029527 0.000000
   vertex 0.033675 -0.029755 0.000000
   vertex 0.032527 -0.032527 0.000000
  endloop
 endfacet
 facet normal 0.000000 0.000000 -1.000000
  outer loop
   vertex 0.031379 -0.029755 0.000000
   vertex 0.032527 -0.029527 0.000000
   vertex 0.032527 -0.032527 0.000000
  endloop
 endfacet
 facet normal 0.000000 0.000000 -1.000000
  outer loop
   vertex 0.030406 -0.030406 0.000000
   vertex 0.031379 -0.029755 0.000000
   vertex 0.032527 -0.032527 0.000000
  endloop
 endfacet
 facet normal 0.000000 0.000000 -1.000000
  outer loop
   vertex 0.029755 -0.031379 0.000000
   vertex 0.030406 -0.030406 0.000000
   vertex 0.032527 -0.032527 0.000000
  endloop
 endfacet
 facet normal 0.000000 0.000000 -1.000000
  outer loop
   vertex 0.029527 -0.032527 0.000000
   vertex 0.029755 -0.031379 0.000000
   vertex 0.032527 -0.032527 0.000000
  endloop
 endfacet
 facet normal 0.000000 0.000000 -1.000000
  outer loop
   vertex 0.029755 -0.033675 0.000000
   vertex 0.029527 -0.032527 0.000000
   vertex 0.032527 -0.032527 0.000000
  endloop
 endfacet
 facet normal 0.000000 0.000000 -1.000000
  outer loop
   vertex 0.030406 -0.034648 0.000000
   vertex 0.029755 -0.033675 0.000000
   vertex 0.032527 -0.032527 0.000000
  endloop
 endfacet
 facet normal 0.000000 0.000000 -1.000000
  outer loop
   vertex 0.031379 -0.035299 0.000000
   vertex 0.030406 -0.034648 0.000000
   vertex 0.032527 -0.032527 0.000000
  endloop
 endfacet
 facet normal 0.000000 0.000000 -1.000000
  outer loop
   vertex 0.032527 -0.035527 0.000000
   vertex 0.031379 -0.035299 0.000000
   vertex 0.032527 -0.032527 0.000000
  endloop
 endfacet
 facet normal -0.000000 0.000000 -1.000000
  outer loop
   vertex 0.033675 -0.035299 0.000000
   vertex 0.032527 -0.035527 0.000000
   vertex 0.032527 -0.032527 0.000000
  endloop
 endfacet
 facet normal -0.000000 0.000000 -1.000000
  outer loop
   vertex 0.034648 -0.034648 0.000000
   vertex 0.033675 -0.035299 0.000000
   vertex 0.032527 -0.032527 0.000000
  endloop
 endfacet
 facet normal -0.000000 0.000000 -1.000000
  outer loop
   vertex 0.035299 -0.033675 0.000000
   vertex 0.034648 -0.034648 0.000000
   vertex 0.032527 -0.032527 0.000000
  endloop
 endfacet
 facet normal -0.000000 0.000000 -1.000000
  outer loop
   vertex 0.035527 -0.032527 0.000000
   vertex 0.035299 -0.033675 0.000000
   vertex 0.032527 -0.032527 0.000000
  endloop
 endfacet
 facet normal 0.000000 0.000000 1.000000
  outer loop
   vertex 0.035527 -0.032527 0.010000
   vertex 0.035299 -0.031379 0.010000
   vertex 0.032527 -0.032527 0.010000
  endloop
 endfacet
 facet normal 0.000000 0.000000 1.000000
  outer loop
   vertex 0.035299 -0.031379 0.010000
   vertex 0.034648 -0.030406 0.010000
   vertex 0.032527 -0.032527 0.010000
  endloop
 endfacet
 facet normal 0.000000 0.000000 1.000000
  outer loop
   vertex 0.034648 -0.030406 0.010000
   vertex 0.033675 -0.029755 0.010000
   vertex 0.032527 -0.032527 0.010000
  endloop
 endfacet
 facet normal 0.000000 0.000000 1.000000
  outer loop
   vertex 0.033675 -0.029755 0.010000
   vertex 0.032527 -0.029527 0.010000
   vertex 0.032527 -0.032527 0.010000
  endloop
 endfacet
 facet normal 0.000000 0.000000 1.000000
  outer loop
   vertex 0.032527 -0.029527 0.010000
   vertex 0.031379 -0.029755 0.010000
   vertex 0.032527 -0.032527 0.010000
  endloop
 endfacet
 facet normal 0.000000 0.000000 1.000000
  outer loop
   vertex 0.031379 -0.029755 0.010000
   vertex 0.030406 -0.030406 0.010000
   vertex 0.032527 -0.032527 0.010000
  endloop
 endfacet
 facet normal 0.000000 0.000000 1.000000
  outer loop
   vertex 0.030406 -0.030406 0.010000
   vertex 0.029755 -0.031379 0.010000
   vertex 0.032527 -0.032527 0.010000
  endloop
 endfacet
 facet normal 0.000000 0.000000 1.000000
  outer loop
   vertex 0.029755 -0.031379 0.010000
   vertex 0.029527 -0.032527 0.010000
   vertex 0.032527 -0.032527 0.010000
  endloop
 endfacet
 facet normal -0.000000 0.000000 1.000000
  outer loop
   vertex 0.029527 -0.032527 0.010000
   vertex 0.029755 -0.033675 0.010000
   vertex 0.032527 -0.032527 0.010000
  endloop
 endfacet
 facet normal -0.000000 0.000000 1.000000
  outer loop
   vertex 0.029755 -0.033675 0.010000
   vertex 0.030406 -0.034648 0.010000
   vertex 0.032527 -0.032527 0.010000
  endloop
 endfacet
 facet normal -0.000000 0.000000 1.000000
  outer loop
   vertex 0.030406 -0.034648 0.010000
   vertex 0.031379 -0.035299 0.010000
   vertex 0.032527 -0.032527 0.010000
  endloop
 endfacet
 facet normal -0.000000 0.000000 1.000000
  outer loop
   vertex 0.031379 -0.035299 0.010000
   vertex 0.032527 -0.035527 0.010000
   vertex 0.032527 -0.032527 0.010000
  endloop
 endfacet
 facet normal 0.000000 0.000000 1.000000
  outer loop
   vertex 0.032527 -0.035527 0.010000
   vertex 0.033675 -0.035299 0.010000
   vertex 0.032527 -0.032527 0.010000
  endloop
 endfacet
 facet normal 0.000000 -0.000000 1.000000
  outer loop
   vertex 0.033675 -0.035299 0.010000
   vertex 0.034648 -0.034648 0.010000
   vertex 0.032527 -0.032527 0.010000
  endloop
 endfacet
 facet normal 0.000000 -0.000000 1.000000
  outer loop
   vertex 0.034648 -0.034648 0.010000
   vertex 0.035299 -0.033675 0.010000
   vertex 0.032527 -0.032527 0.010000
  endloop
 endfacet
 facet normal 0.000000 -0.000000 1.000000
  outer loop
   vertex 0.035299 -0.033675 0.010000
   vertex 0.035527 -0.032527 0.010000
   vertex 0.032527 -0.032527 0.010000
  endloop
 endfacet
 facet normal 0.965926 0.258819 0.000000
  outer loop
   vertex 0.042527 0.032527 0.010000
   vertex 0.041187 0.037527 0.010000
   vertex 0.041187 0.037527 0.010800
  endloop
 endfacet
 facet normal 0.965926 0.258819 -0.000000
  outer loop
   vertex 0.042527 0.032527 0.010000
   vertex 0.041187 0.037527 0.010800
   vertex 0.042527 0.032527 0.010800
  endloop
 endfacet
 facet normal 0.707107 0.707107 0.000000
  outer loop
   vertex 0.041187 0.037527 0.010000
   vertex 0.037527 0.041187 0.010000
   vertex 0.037527 0.041187 0.010800
  endloop
 endfacet
 facet normal 0.707107 0.707107 -0.000000
  outer loop
   vertex 0.041187 0.037527 0.010000
   vertex 0.037527 0.041187 0.010800
   vertex 0.041187 0.037527 0.010800
  endloop
 endfacet
 facet normal 0.258819 0.965926 0.000000
  outer loop
   vertex 0.037527 0.041187 0.010000
   vertex 0.032527 0.042527 0.010000
   vertex 0.032527 0.042527 0.010800
  endloop
 endfacet
 facet normal 0.258819 0.965926 -0.000000
  outer loop
   vertex 0.037527 0.041187 0.010000
   vertex 0.032527 0.042527 0.010800
   vertex 0.037527 0.041187 0.010800
  endloop
 endfacet
 facet normal -0.258819 0.965926 0.000000
  outer loop
   vertex 0.032527 0.042527 0.010000
   vertex 0.027527 0.041187 0.010000
   vertex 0.027527 0.041187 0.010800
  endloop
 endfacet
 facet normal -0.258819 0.965926 0.000000
  outer loop
   vertex 0.032527 0.042527 0.010000
   vertex 0.027527 0.041187 0.010800
   vertex 0.032527 0.042527 0.010800
  endloop
 endfacet
 facet normal -0.707107 0.707107 0.000000
  outer loop
   vertex 0.027527 0.041187 0.010000
   vertex 0.023867 0.037527 0.010000
   vertex 0.023867 0.037527 0.010800
  endloop
 endfacet
 facet normal -0.707107 0.707107 0.000000
  outer loop
   vertex 0.027527 0.041187 0.010000
   vertex 0.023867 0.037527 0.010800
   vertex 0.027527 0.041187 0.010800
  endloop
 endfacet
 facet normal -0.965926 0.258819 0.000000
  outer loop
   vertex 0.023867 0.037527 0.010000
   vertex 0.022527 0.032527 0.010000
   vertex 0.022527 0.032527 0.010800
  endloop
 endfacet
 facet normal -0.965926 0.258819 0.000000
  outer loop
   vertex 0.023867 0.037527 0.010000
   vertex 0.022527 0.032527 0.010800
   vertex 0.023867 0.037527 0.010800
  endloop
 endfacet
 facet normal -0.965926 -0.258819 0.000000
  outer loop
   vertex 0.022527 0.032527 0.010000
   vertex 0.023867 0.027527 0.010000
   vertex 0.023867 0.027527 0.010800
  endloop
 endfacet
 facet normal -0.965926 -0.258819 0.000000
  outer loop
   vertex 0.022527 0.032527 0.010000
   vertex 0.023867 0.027527 0.010800
   vertex 0.022527 0.032527 0.010800
  endloop
 endfacet
 facet normal -0.707107 -0.707107 0.000000
  outer loop
   vertex 0.023867 0.027527 0.010000
   vertex 0.027527 0.023867 0.010000
   vertex 0.027527 0.023867 0.010800
  endloop
 endfacet
 facet normal -0.707107 -0.707107 0.000000
  outer loop
   vertex 0.023867 0.027527 0.010000
   vertex 0.027527 0.023867 0.010800
   vertex 0.023867 0.027527 0.010800
  endloop
 endfacet
 facet normal -0.258819 -0.965926 0.000000
  outer loop
   vertex 0.027527 0.023867 0.010000
   vertex 0.032527 0.022527 0.010000
   vertex 0.032527 0.022527 0.010800
  endloop
 endfacet
 facet normal -0.258819 -0.965926 0.000000
  outer loop
   vertex 0.027527 0.023867 0.010000
   vertex 0.032527 0.022527 0.010800
   vertex 0.027527 0.023867 0.010800
  endloop
 endfacet
 facet normal 0.258819 -0.965926 0.000000
  outer loop
   vertex 0.032527 0.022527 0.010000
   vertex 0.037527 0.023867 0.010000
   vertex 0.037527 0.023867 0.010800
  endloop
 endfacet
 facet normal 0.258819 -0.965926 0.000000
  outer loop
   vertex 0.032527 0.022527 0.010000
   vertex 0.037527 0.023867 0.010800
   vertex 0.032527 0.022527 0.010800
  endloop
 endfacet
 facet normal 0.707107 -0.707107 0.000000
  outer loop
   vertex 0.037527 0.023867 0.010000
   vertex 0.041187 0.027527 0.010000
   vertex 0.041187 0.027527 0.010800
  endloop
 endfacet
 facet normal 0.707107 -0.707107 0.000000
  outer loop
   vertex 0.037527 0.023867 0.010000
   vertex 0.041187 0.027527 0.010800
   vertex 0.037527 0.023867 0.010800
  endloop
 endfacet
 facet normal 0.965926 -0.258819 0.000000
  outer loop
   vertex 0.041187 0.027527 0.010000
   vertex 0.042527 0.032527 0.010000
   vertex 0.042527 0.032527 0.010800
  endloop
 endfacet
 facet normal 0.965926 -0.258819 0.000000
  outer loop
   vertex 0.041187 0.027527 0.010000
   vertex 0.042527 0.032527 0.010800
   vertex 0.041187 0.027527 0.010800
  endloop
 endfacet
 facet normal 0.000000 -0.000000 -1.000000
  outer loop
   vertex 0.041187 0.037527 0.010000
   vertex 0.042527 0.032527 0.010000
   vertex 0.032527 0.032527 0.010000
  endloop
 endfacet
 facet normal 0.000000 -0.000000 -1.000000
  outer loop
   vertex 0.037527 0.041187 0.010000
   vertex 0.041187 0.037527 0.010000
   vertex 0.032527 0.032527 0.010000
  endloop
 endfacet
 facet normal 0.000000 0.000000 -1.000000
  outer loop
   vertex 0.032527 0.042527 0.010000
   vertex 0.037527 0.041187 0.010000
   vertex 0.032527 0.032527 0.010000
  endloop
 endfacet
 facet normal 0.000000 0.000000 -1.000000
  outer loop
   vertex 0.027527 0.041187 0.010000
   vertex 0.032527 0.042527 0.010000
   vertex 0.032527 0.032527 0.010000
  endloop
 endfacet
 facet normal 0.000000 0.000000 -1.000000
  outer loop
   vertex 0.023867 0.037527 0.010000
   vertex 0.027527 0.041187 0.010000
   vertex 0.032527 0.032527 0.010000
  endloop
 endfacet
 facet normal 0.000000 0.000000 -1.000000
  outer loop
   vertex 0.022527 0.032527 0.010000
   vertex 0.023867 0.037527 0.010000
   vertex 0.032527 0.032527 0.010000
  endloop
 endfacet
 facet normal 0.000000 0.000000 -1.000000
  outer loop
   vertex 0.023867 0.027527 0.010000
   vertex 0.022527 0.032527 0.010000
   vertex 0.032527 0.032527 0.010000
  endloop
 endfacet
 facet normal 0.000000 0.000000 -1.000000
  outer loop
   vertex 0.027527 0.023867 0.010000
   vertex 0.023867 0.027527 0.010000
   vertex 0.032527 0.032527 0.010000
  endloop
 endfacet
 facet normal 0.000000 0.000000 -1.000000
  outer loop
   vertex 0.032527 0.022527 0.010000
   vertex 0.027527 0.023867 0.010000
   vertex 0.032527 0.032527 0.010000
  endloop
 endfacet
 facet normal -0.000000 0.000000 -1.000000
  outer loop
   vertex 0.037527 0.023867 0.010000
   vertex 0.032527 0.022527 0.010000
   vertex 0.032527 0.032527 0.010000
  endloop
 endfacet
 facet normal -0.000000 0.000000 -1.000000
  outer loop
   vertex 0.041187 0.027527 0.010000
   vertex 0.037527 0.023867 0.010000
   vertex 0.032527 0.032527 0.010000
  endloop
 endfacet
 facet normal -0.000000 0.000000 -1.000000
  outer loop
   vertex 0.042527 0.032527 0.010000
   vertex 0.041187 0.027527 0.010000
   vertex 0.032527 0.032527 0.010000
  endloop
 endfacet
 facet normal 0.000000 0.000000 1.000000
  outer loop
   vertex 0.042527 0.032527 0.010800
   vertex 0.041187 0.037527 0.010800
   vertex 0.032527 0.032527 0.010800
  endloop
 endfacet
 facet normal 0.000000 0.000000 1.000000
  outer loop
   vertex 0.041187 0.037527 0.010800
   vertex 0.037527 0.041187 0.010800
   vertex 0.032527 0.032527 0.010800
  endloop
 endfacet
 facet normal 0.000000 0.000000 1.000000
  outer loop
   vertex 0.037527 0.041187 0.010800
   vertex 0.032527 0.042527 0.010800
   vertex 0.032527 0.032527 0.010800
  endloop
 endfacet
 facet normal 0.000000 0.000000 1.000000
  outer loop
   vertex 0.032527 0.042527 0.010800
   vertex 0.027527 0.041187 0.010800
   vertex 0.032527 0.032527 0.010800
  endloop
 endfacet
 facet normal 0.000000 0.000000 1.000000
  outer loop
   vertex 0.027527 0.041187 0.010800
   vertex 0.023867 0.037527 0.010800
   vertex 0.032527 0.032527 0.010800
  endloop
 endfacet
 facet normal 0.000000 0.000000 1.000000
  outer loop
   vertex 0.023867 0.037527 0.010800
   vertex 0.022527 0.032527 0.010800
   vertex 0.032527 0.032527 0.010800
  endloop
 endfacet
 facet normal -0.000000 0.000000 1.000000
  outer loop
   vertex 0.022527 0.032527 0.010800
   vertex 0.023867 0.027527 0.010800
   vertex 0.032527 0.032527 0.010800
  endloop
 endfacet
 facet normal -0.000000 0.000000 1.000000
  outer loop
   vertex 0.023867 0.027527 0.010800
   vertex 0.027527 0.023867 0.010800
   vertex 0.032527 0.032527 0.010800
  endloop
 endfacet
 facet normal -0.000000 0.000000 1.000000
  outer loop
   vertex 0.027527 0.023867 0.010800
   vertex 0.032527 0.022527 0.010800
   vertex 0.032527 0.032527 0.010800
  endloop
 endfacet
 facet normal 0.000000 0.000000 1.000000
  outer loop
   vertex 0.032527 0.022527 0.010800
   vertex 0.037527 0.023867 0.010800
   vertex 0.032527 0.032527 0.010800
  endloop
 endfacet
 facet normal 0.000000 -0.000000 1.000000
  outer loop
   vertex 0.037527 0.023867 0.010800
   vertex 0.041187 0.027527 0.010800
   vertex 0.032527 0.032527 0.010800
  endloop
 endfacet
 facet normal 0.000000 -0.000000 1.000000
  outer loop
   vertex 0.041187 0.027527 0.010800
   vertex 0.042527 0.032527 0.010800
   vertex 0.032527 0.032527 0.010800
  endloop
 endfacet
 facet normal 0.965926 0.258819 0.000000
  outer loop
   vertex -0.022527 0.032527 0.010000
   vertex -0.023867 0.037527 0.010000
   vertex -0.023867 0.037527 0.010800
  endloop
 endfacet
 facet normal 0.965926 0.258819 -0.000000
  outer loop
   vertex -0.022527 0.032527 0.010000
   vertex -0.023867 0.037527 0.010800
   vertex -0.022527 0.032527 0.010800
  endloop
 endfacet
 facet normal 0.707107 0.707107 0.000000
  outer loop
   vertex -0.023867 0.037527 0.010000
   vertex -0.027527 0.041187 0.010000
   vertex -0.027527 0.041187 0.010800
  endloop
 endfacet
 facet normal 0.707107 0.707107 -0.000000
  outer loop
   vertex -0.023867 0.037527 0.010000
   vertex -0.027527 0.041187 0.010800
   vertex -0.023867 0.037527 0.010800
  endloop
 endfacet
 facet normal 0.258819 0.965926 0.000000
  outer loop
   vertex -0.027527 0.041187 0.010000
   vertex -0.032527 0.042527 0.010000
   vertex -0.032527 0.042527 0.010800
  endloop
 endfacet
 facet normal 0.258819 0.965926 -0.000000
  outer loop
   vertex -0.027527 0.041187 0.010000
   vertex -0.032527 0.042527 0.010800
   vertex -0.027527 0.041187 0.010800
  endloop
 endfacet
 facet normal -0.258819 0.965926 0.000000
  outer loop
   vertex -0.032527 0.042527 0.010000
   vertex -0.037527 0.041187 0.010000
   vertex -0.037527 0.041187 0.010800
  endloop
 endfacet
 facet normal -0.258819 0.965926 0.000000
  outer loop
   vertex -0.032527 0.042527 0.010000
   vertex -0.037527 0.041187 0.010800
   vertex -0.032527 0.042527 0.010800
  endloop
 endfacet
 facet normal -0.707107 0.707107 0.000000
  outer loop
   vertex -0.037527 0.041187 0.010000
   vertex -0.041187 0.037527 0.010000
   vertex -0.041187 0.037527 0.010800
  endloop
 endfacet
 facet normal -0.707107 0.707107 0.000000
  outer loop
   vertex -0.037527 0.041187 0.010000
   vertex -0.041187 0.037527 0.010800
   vertex -0.037527 0.041187 0.010800
  endloop
 endfacet
 facet normal -0.965926 0.258819 0.000000
  outer loop
   vertex -0.041187 0.037527 0.010000
   vertex -0.042527 0.032527 0.010000
   vertex -0.042527 0.032527 0.010800
  endloop
 endfacet
 facet normal -0.965926 0.258819 0.000000
  outer loop
   vertex -0.041187 0.037527 0.010000
   vertex -0.042527 0.032527 0.010800
   vertex -0.041187 0.037527 0.010800
  endloop
 endfacet
 facet normal -0.965926 -0.258819 0.000000
  outer loop
   vertex -0.042527 0.032527 0.010000
   vertex -0.041187 0.027527 0.010000
   vertex -0.041187 0.027527 0.010800
  endloop
 endfacet
 facet normal -0.965926 -0.258819 0.000000
  outer loop
   vertex -0.042527 0.032527 0.010000
   vertex -0.041187 0.027527 0.010800
   vertex -0.042527 0.032527 0.010800
  endloop
 endfacet
 facet normal -0.707107 -0.707107 0.000000
  outer loop
   vertex -0.041187 0.027527 0.010000
   vertex -0.037527 0.023867 0.010000
   vertex -0.037527 0.023867 0.010800
  endloop
 endfacet
 facet normal -0.707107 -0.707107 0.000000
  outer loop
   vertex -0.041187 0.027527 0.010000
   vertex -0.037527 0.023867 0.010800
   vertex -0.041187 0.027527 0.010800
  endloop
 endfacet
 facet normal -0.258819 -0.965926 0.000000
  outer loop
   vertex -0.037527 0.023867 0.010000
   vertex -0.032527 0.022527 0.010000
   vertex -0.032527 0.022527 0.010800
  endloop
 endfacet
 facet normal -0.258819 -0.965926 0.000000
  outer loop
   vertex -0.037527 0.023867 0.010000
   vertex -0.032527 0.022527 0.010800
   vertex -0.037527 0.023867 0.010800
  endloop
 endfacet
 facet normal 0.258819 -0.965926 0.000000
  outer loop
   vertex -0.032527 0.022527 0.010000
   vertex -0.027527 0.023867 0.010000
   vertex -0.027527 0.023867 0.010800
  endloop
 endfacet
 facet normal 0.258819 -0.965926 0.000000
  outer loop
   vertex -0.032527 0.022527 0.010000
   vertex -0.027527 0.023867 0.010800
   vertex -0.032527 0.022527 0.010800
  endloop
 endfacet
 facet normal 0.707107 -0.707107 0.000000
  outer loop
   vertex -0.027527 0.023867 0.010000
   vertex -0.023867 0.027527 0.010000
   vertex -0.023867 0.027527 0.010800
  endloop
 endfacet
 facet normal 0.707107 -0.707107 0.000000
  outer loop
   vertex -0.027527 0.023867 0.010000
   vertex -0.023867 0.027527 0.010800
   vertex -0.027527 0.023867 0.010800
  endloop
 endfacet
 facet normal 0.965926 -0.258819 0.000000
  outer loop
   vertex -0.023867 0.027527 0.010000
   vertex -0.022527 0.032527 0.010000
   vertex -0.022527 0.032527 0.010800
  endloop
 endfacet
 facet normal 0.965926 -0.258819 0.000000
  outer loop
   vertex -0.023867 0.027527 0.010000
   vertex -0.022527 0.032527 0.010800
   vertex -0.023867 0.027527 0.010800
  endloop
 endfacet
 facet normal 0.000000 -0.000000 -1.000000
  outer loop
   vertex -0.023867 0.037527 0.010000
   vertex -0.022527 0.032527 0.010000
   vertex -0.032527 0.032527 0.010000
  endloop
 endfacet
 facet normal 0.000000 -0.000000 -1.000000
  outer loop
   vertex -0.027527 0.041187 0.010000
   vertex -0.023867 0.037527 0.010000
   vertex -0.032527 0.032527 0.010000
  endloop
 endfacet
 facet normal 0.000000 0.000000 -1.000000
  outer loop
   vertex -0.032527 0.042527 0.010000
   vertex -0.027527 0.041187 0.010000
   vertex -0.032527 0.032527 0.010000
  endloop
 endfacet
 facet normal 0.000000 0.000000 -1.000000
  outer loop
   vertex -0.037527 0.041187 0.010000
   vertex -0.032527 0.042527 0.010000
   vertex -0.032527 0.032527 0.010000
  endloop
 endfacet
 facet normal 0.000000 0.000000 -1.000000
  outer loop
   vertex -0.041187 0.037527 0.010000
   vertex -0.037527 0.041187 0.010000
   vertex -0.032527 0.032527 0.010000
  endloop
 endfacet
 facet normal 0.000000 0.000000 -1.000000
  outer loop
   vertex -0.042527 0.032527 0.010000
   vertex -0.041187 0.037527 0.010000
   vertex -0.032527 0.032527 0.010000
  endloop
 endfacet
 facet normal 0.000000 0.000000 -1.000000
  outer loop
   vertex -0.041187 0.027527 0.010000
   vertex -0.042527 0.032527 0.010000
   vertex -0.032527 0.032527 0.010000
  endloop
 endfacet
 facet normal 0.000000 0.000000 -1.000000
  outer loop
   vertex -0.037527 0.023867 0.010000
   vertex -0.041187 0.027527 0.010000
   vertex -0.032527 0.032527 0.010000
  endloop
 endfacet
 facet normal 0.000000 0.000000 -1.000000
  outer loop
   vertex -0.032527 0.022527 0.010000
   vertex -0.037527 0.023867 0.010000
   vertex -0.032527 0.032527 0.010000
  endloop
 endfacet
 facet normal -0.000000 0.000000 -1.000000
  outer loop
   vertex -0.027527 0.023867 0.010000
   vertex -0.032527 0.022527 0.010000
   vertex -0.032527 0.032527 0.010000
  endloop
 endfacet
 facet normal -0.000000 0.000000 -1.000000
  outer loop
   vertex -0.023867 0.027527 0.010000
   vertex -0.027527 0.023867 0.010000
   vertex -0.032527 0.032527 0.010000
  endloop
 endfacet
 facet normal -0.000000 0.000000 -1.000000
  outer loop
   vertex -0.022527 0.032527 0.010000
   vertex -0.023867 0.027527 0.010000
   vertex -0.032527 0.032527 0.010000
  endloop
 endfacet
 facet normal 0.000000 0.000000 1.000000
  outer loop
   vertex -0.022527 0.032527 0.010800
   vertex -0.023867 0.037527 0.010800
   vertex -0.032527 0.032527 0.010800
  endloop
 endfacet
 facet normal 0.000000 0.000000 1.000000
  outer loop
   vertex -0.023867 0.037527 0.010800
   vertex -0.027527 0.041187 0.010800
   vertex -0.032527 0.032527 0.010800
  endloop
 endfacet
 facet normal 0.000000 0.000000 1.000000
  outer loop
   vertex -0.027527 0.041187 0.010800
   vertex -0.032527 0.042527 0.010800
   vertex -0.032527 0.032527 0.010800
  endloop
 endfacet
 facet normal 0.000000 0.000000 1.000000
  outer loop
   vertex -0.032527 0.042527 0.010800
   vertex -0.037527 0.041187 0.010800
   vertex -0.032527 0.032527 0.010800
  endloop
 endfacet
 facet normal 0.000000 0.000000 1.000000
  outer loop
   vertex -0.037527 0.041187 0.010800
   vertex -0.041187 0.037527 0.010800
   vertex -0.032527 0.032527 0.010800
  endloop
 endfacet
 facet normal 0.000000 0.000000 1.000000
  outer loop
   vertex -0.041187 0.037527 0.010800
   vertex -0.042527 0.032527 0.010800
   vertex -0.032527 0.032527 0.010800
  endloop
 endfacet
 facet normal -0.000000 0.000000 1.000000
  outer loop
   vertex -0.042527 0.032527 0.010800
   vertex -0.041187 0.027527 0.010800
   vertex -0.032527 0.032527 0.010800
  endloop
 endfacet
 facet normal -0.000000 0.000000 1.000000
  outer loop
   vertex -0.041187 0.027527 0.010800
   vertex -0.037527 0.023867 0.010800
   vertex -0.032527 0.032527 0.010800
  endloop
 endfacet
 facet normal -0.000000 0.000000 1.000000
  outer loop
   vertex -0.037527 0.023867 0.010800
   vertex -0.032527 0.022527 0.010800
   vertex -0.032527 0.032527 0.010800
  endloop
 endfacet
 facet normal 0.000000 0.000000 1.000000
  outer loop
   vertex -0.032527 0.022527 0.010800
   vertex -0.027527 0.023867 0.010800
   vertex -0.032527 0.032527 0.010800
  endloop
 endfacet
 facet normal 0.000000 -0.000000 1.000000
  outer loop
   vertex -0.027527 0.023867 0.010800
   vertex -0.023867 0.027527 0.010800
   vertex -0.032527 0.032527 0.010800
  endloop
 endfacet
 facet normal 0.000000 -0.000000 1.000000
  outer loop
   vertex -0.023867 0.027527 0.010800
   vertex -0.022527 0.032527 0.010800
   vertex -0.032527 0.032527 0.010800
  endloop
 endfacet
 facet normal 0.965926 0.258819 0.000000
  outer loop
   vertex -0.022527 -0.032527 0.010000
   vertex -0.023867 -0.027527 0.010000
   vertex -0.023867 -0.027527 0.010800
  endloop
 endfacet
 facet normal 0.965926 0.258819 -0.000000
  outer loop
   vertex -0.022527 -0.032527 0.010000
   vertex -0.023867 -0.027527 0.010800
   vertex -0.022527 -0.032527 0.010800
  endloop
 endfacet
 facet normal 0.707107 0.707107 0.000000
  outer loop
   vertex -0.023867 -0.027527 0.010000
   vertex -0.027527 -0.023867 0.010000
   vertex -0.027527 -0.023867 0.010800
  endloop
 endfacet
 facet normal 0.707107 0.707107 -0.000000
  outer loop
   vertex -0.023867 -0.027527 0.010000
   vertex -0.027527 -0.023867 0.010800
   vertex -0.023867 -0.027527 0.010800
  endloop
 endfacet
 facet normal 0.258819 0.965926 0.000000
  outer loop
   vertex -0.027527 -0.023867 0.010000
   vertex -0.032527 -0.022527 0.010000
   vertex -0.032527 -0.022527 0.010800
  endloop
 endfacet
 facet normal 0.258819 0.965926 -0.000000
  outer loop
   vertex -0.027527 -0.023867 0.010000
   vertex -0.032527 -0.022527 0.010800
   vertex -0.027527 -0.023867 0.010800
  endloop
 endfacet
 facet normal -0.258819 0.965926 0.000000
  outer loop
   vertex -0.032527 -0.022527 0.010000
   vertex -0.037527 -0.023867 0.010000
   vertex -0.037527 -0.023867 0.010800
  endloop
 endfacet
 facet normal -0.258819 0.965926 0.000000
  outer loop
   vertex -0.032527 -0.022527 0.010000
   vertex -0.037527 -0.023867 0.010800
   vertex -0.032527 -0.022527 0.010800
  endloop
 endfacet
 facet normal -0.707107 0.707107 0.000000
  outer loop
   vertex -0.037527 -0.023867 0.010000
   vertex -0.041187 -0.027527 0.010000
   vertex -0.041187 -0.027527 0.010800
  endloop
 endfacet
 facet normal -0.707107 0.707107 0.000000
  outer loop
   vertex -0.037527 -0.023867 0.010000
   vertex -0.041187 -0.027527 0.010800
   vertex -0.037527 -0.023867 0.010800
  endloop
 endfacet
 facet normal -0.965926 0.258819 0.000000
  outer loop
   vertex -0.041187 -0.027527 0.010000
   vertex -0.042527 -0.032527 0.010000
   vertex -0.042527 -0.032527 0.010800
  endloop
 endfacet
 facet normal -0.965926 0.258819 0.000000
  outer loop
   vertex -0.041187 -0.027527 0.010000
   vertex -0.042527 -0.032527 0.010800
   vertex -0.041187 -0.027527 0.010800
  endloop
 endfacet
 facet normal -0.965926 -0.258819 0.000000
  outer loop
   vertex -0.042527 -0.032527 0.010000
   vertex -0.041187 -0.037527 0.010000
   vertex -0.041187 -0.037527 0.010800
  endloop
 endfacet
 facet normal -0.965926 -0.258819 0.000000
  outer loop
   vertex -0.042527 -0.032527 0.010000
   vertex -0.041187 -0.037527 0.010800
   vertex -0.042527 -0.032527 0.010800
  endloop
 endfacet
 facet normal -0.707107 -0.707107 0.000000
  outer loop
   vertex -0.041187 -0.037527 0.010000
   vertex -0.037527 -0.041187 0.010000
   vertex -0.037527 -0.041187 0.010800
  endloop
 endfacet
 facet normal -0.707107 -0.707107 0.000000
  outer loop
   vertex -0.041187 -0.037527 0.010000
   vertex -0.037527 -0.041187 0.010800
   vertex -0.041187 -0.037527 0.010800
  endloop
 endfacet
 facet normal -0.258819 -0.965926 0.000000
  outer loop
   vertex -0.037527 -0.041187 0.010000
   vertex -0.032527 -0.042527 0.010000
   vertex -0.032527 -0.042527 0.010800
  endloop
 endfacet
 facet normal -0.258819 -0.965926 0.000000
  outer loop
   vertex -0.037527 -0.041187 0.010000
   vertex -0.032527 -0.042527 0.010800
   vertex -0.037527 -0.041187 0.010800
  endloop
 endfacet
 facet normal 0.258819 -0.965926 0.000000
  outer loop
   vertex -0.032527 -0.042527 0.010000
   vertex -0.027527 -0.041187 0.010000
   vertex -0.027527 -0.041187 0.010800
  endloop
 endfacet
 facet normal 0.258819 -0.965926 0.000000
  outer loop
   vertex -0.032527 -0.042527 0.010000
   vertex -0.027527 -0.041187 0.010800
   vertex -0.032527 -0.042527 0.010800
  endloop
 endfacet
 facet normal 0.707107 -0.707107 0.000000
  outer loop
   vertex -0.027527 -0.041187 0.010000
   vertex -0.023867 -0.037527 0.010000
   vertex -0.023867 -0.037527 0.010800
  endloop
 endfacet
 facet normal 0.707107 -0.707107 0.000000
  outer loop
   vertex -0.027527 -0.041187 0.010000
   vertex -0.023867 -0.037527 0.010800
   vertex -0.027527 -0.041187 0.010800
  endloop
 endfacet
 facet normal 0.965926 -0.258819 0.000000
  outer loop
   vertex -0.023867 -0.037527 0.010000
   vertex -0.022527 -0.032527 0.010000
   vertex -0.022527 -0.032527 0.010800
  endloop
 endfacet
 facet normal 0.965926 -0.258819 0.000000
  outer loop
   vertex -0.023867 -0.037527 0.010000
   vertex -0.022527 -0.032527 0.010800
   vertex -0.023867 -0.037527 0.010800
  endloop
 endfacet
 facet normal 0.000000 -0.000000 -1.000000
  outer loop
   vertex -0.023867 -0.027527 0.010000
   vertex -0.022527 -0.032527 0.010000
   vertex -0.032527 -0.032527 0.010000
  endloop
 endfacet
 facet normal 0.000000 -0.000000 -1.000000
  outer loop
   vertex -0.027527 -0.023867 0.010000
   vertex -0.023867 -0.027527 0.010000
   vertex -0.032527 -0.032527 0.010000
  endloop
 endfacet
 facet normal 0.000000 0.000000 -1.000000
  outer loop
   vertex -0.032527 -0.022527 0.010000
   vertex -0.027527 -0.023867 0.010000
   vertex -0.032527 -0.032527 0.010000
  endloop
 endfacet
 facet normal 0.000000 0.000000 -1.000000
  outer loop
   vertex -0.037527 -0.023867 0.010000
   vertex -0.032527 -0.022527 0.010000
   vertex -0.032527 -0.032527 0.010000
  endloop
 endfacet
 facet normal 0.000000 0.000000 -1.000000
  outer loop
   vertex -0.041187 -0.027527 0.010000
   vertex -0.037527 -0.023867 0.010000
   vertex -0.032527 -0.032527 0.010000
  endloop
 endfacet
 facet normal 0.000000 0.000000 -1.000000
  outer loop
   vertex -0.042527 -0.032527 0.010000
   vertex -0.041187 -0.027527 0.010000
   vertex -0.032527 -0.032527 0.010000
  endloop
 endfacet
 facet normal 0.000000 0.000000 -1.000000
  outer loop
   vertex -0.041187 -0.037527 0.010000
   vertex -0.042527 -0.032527 0.010000
   vertex -0.032527 -0.032527 0.010000
  endloop
 endfacet
 facet normal 0.000000 0.000000 -1.000000
  outer loop
   vertex -0.037527 -0.041187 0.010000
   vertex -0.041187 -0.037527 0.010000
   vertex -0.032527 -0.032527 0.010000
  endloop
 endfacet
 facet normal 0.000000 0.000000 -1.000000
  outer loop
   vertex -0.032527 -0.042527 0.010000
   vertex -0.037527 -0.041187 0.010000
   vertex -0.032527 -0.032527 0.010000
  endloop
 endfacet
 facet normal -0.000000 0.000000 -1.000000
  outer loop
   vertex -0.027527 -0.041187 0.010000
   vertex -0.032527 -0.042527 0.010000
   vertex -0.032527 -0.032527 0.010000
  endloop
 endfacet
 facet normal -0.000000 0.000000 -1.000000
  outer loop
   vertex -0.023867 -0.037527 0.010000
   vertex -0.027527 -0.041187 0.010000
   vertex -0.032527 -0.032527 0.010000
  endloop
 endfacet
 facet normal -0.000000 0.000000 -1.000000
  outer loop
   vertex -0.022527 -0.032527 0.010000
   vertex -0.023867 -0.037527 0.010000
   vertex -0.032527 -0.032527 0.010000
  endloop
 endfacet
 facet normal 0.000000 0.000000 1.000000
  outer loop
   vertex -0.022527 -0.032527 0.010800
   vertex -0.023867 -0.027527 0.010800
   vertex -0.032527 -0.032527 0.010800
  endloop
 endfacet
 facet normal 0.000000 0.000000 1.000000
  outer loop
   vertex -0.023867 -0.027527 0.010800
   vertex -0.027527 -0.023867 0.010800
   vertex -0.032527 -0.032527 0.010800
  endloop
 endfacet
 facet normal 0.000000 0.000000 1.000000
  outer loop
   vertex -0.027527 -0.023867 0.010800
   vertex -0.032527 -0.022527 0.010800
   vertex -0.032527 -0.032527 0.010800
  endloop
 endfacet
 facet normal 0.000000 0.000000 1.000000
  outer loop
   vertex -0.032527 -0.022527 0.010800
   vertex -0.037527 -0.023867 0.010800
   vertex -0.032527 -0.032527 0.010800
  endloop
 endfacet
 facet normal 0.000000 0.000000 1.000000
  outer loop
   vertex -0.037527 -0.023867 0.010800
   vertex -0.041187 -0.027527 0.010800
   vertex -0.032527 -0.032527 0.010800
  endloop
 endfacet
 facet normal 0.000000 0.000000 1.000000
  outer loop
   vertex -0.041187 -0.027527 0.010800
   vertex -0.042527 -0.032527 0.010800
   vertex -0.032527 -0.032527 0.010800
  endloop
 endfacet
 facet normal -0.000000 0.000000 1.000000
  outer loop
   vertex -0.042527 -0.032527 0.010800
   vertex -0.041187 -0.037527 0.010800
   vertex -0.032527 -0.032527 0.010800
  endloop
 endfacet
 facet normal -0.000000 0.000000 1.000000
  outer loop
   vertex -0.041187 -0.037527 0.010800
   vertex -0.037527 -0.041187 0.010800
   vertex -0.032527 -0.032527 0.010800
  endloop
 endfacet
 facet normal -0.000000 0.000000 1.000000
  outer loop
   vertex -0.037527 -0.041187 0.010800
   vertex -0.032527 -0.042527 0.010800
   vertex -0.032527 -0.032527 0.010800
  endloop
 endfacet
 facet normal 0.000000 0.000000 1.000000
  outer loop
   vertex -0.032527 -0.042527 0.010800
   vertex -0.027527 -0.041187 0.010800
   vertex -0.032527 -0.032527 0.010800
  endloop
 endfacet
 facet normal 0.000000 -0.000000 1.000000
  outer loop
   vertex -0.027527 -0.041187 0.010800
   vertex -0.023867 -0.037527 0.010800
   vertex -0.032527 -0.032527 0.010800
  endloop
 endfacet
 facet normal 0.000000 -0.000000 1.000000
  outer loop
   vertex -0.023867 -0.037527 0.010800
   vertex -0.022527 -0.032527 0.010800
   vertex -0.032527 -0.032527 0.010800
  endloop
 endfacet
 facet normal 0.965926 0.258819 0.000000
  outer loop
   vertex 0.042527 -0.032527 0.010000
   vertex 0.041187 -0.027527 0.010000
   vertex 0.041187 -0.027527 0.010800
  endloop
 endfacet
 facet normal 0.965926 0.258819 -0.000000
  outer loop
   vertex 0.042527 -0.032527 0.010000
   vertex 0.041187 -0.027527 0.010800
   vertex 0.042527 -0.032527 0.010800
  endloop
 endfacet
 facet normal 0.707107 0.707107 0.000000
  outer loop
   vertex 0.041187 -0.027527 0.010000
   vertex 0.037527 -0.023867 0.010000
   vertex 0.037527 -0.023867 0.010800
  endloop
 endfacet
 facet normal 0.707107 0.707107 -0.000000
  outer loop
   vertex 0.041187 -0.027527 0.010000
   vertex 0.037527 -0.023867 0.010800
   vertex 0.041187 -0.027527 0.010800
  endloop
 endfacet
 facet normal 0.258819 0.965926 0.000000
  outer loop
   vertex 0.037527 -0.023867 0.010000
   vertex 0.032527 -0.022527 0.010000
   vertex 0.032527 -0.022527 0.010800
  endloop
 endfacet
 facet normal 0.258819 0.965926 -0.000000
  outer loop
   vertex 0.037527 -0.023867 0.010000
   vertex 0.032527 -0.022527 0.010800
   vertex 0.037527 -0.023867 0.010800
  endloop
 endfacet
 facet normal -0.258819 0.965926 0.000000
  outer loop
   vertex 0.032527 -0.022527 0.010000
   vertex 0.027527 -0.023867 0.010000
   vertex 0.027527 -0.023867 0.010800
  endloop
 endfacet
 facet normal -0.258819 0.965926 0.000000
  outer loop
   vertex 0.032527 -0.022527 0.010000
   vertex 0.027527 -0.023867 0.010800
   vertex 0.032527 -0.022527 0.010800
  endloop
 endfacet
 facet normal -0.707107 0.707107 0.000000
  outer loop
   vertex 0.027527 -0.023867 0.010000
   vertex 0.023867 -0.027527 0.010000
   vertex 0.023867 -0.027527 0.010800
  endloop
 endfacet
 facet normal -0.707107 0.707107 0.000000
  outer loop
   vertex 0.027527 -0.023867 0.010000
   vertex 0.023867 -0.027527 0.010800
   vertex 0.027527 -0.023867 0.010800
  endloop
 endfacet
 facet normal -0.965926 0.258819 0.000000
  outer loop
   vertex 0.023867 -0.027527 0.010000
   vertex 0.022527 -0.032527 0.010000
   vertex 0.022527 -0.032527 0.010800
  endloop
 endfacet
 facet normal -0.965926 0.258819 0.000000
  outer loop
   vertex 0.023867 -0.027527 0.010000
   vertex 0.022527 -0.032527 0.010800
   vertex 0.023867 -0.027527 0.010800
  endloop
 endfacet
 facet normal -0.965926 -0.258819 0.000000
  outer loop
   vertex 0.022527 -0.032527 0.010000
   vertex 0.023867 -0.037527 0.010000
   vertex 0.023867 -0.037527 0.010800
  endloop
 endfacet
 facet normal -0.965926 -0.258819 0.000000
  outer loop
   vertex 0.022527 -0.032527 0.010000
   vertex 0.023867 -0.037527 0.010800
   vertex 0.022527 -0.032527 0.010800
  endloop
 endfacet
 facet normal -0.707107 -0.707107 0.000000
  outer loop
   vertex 0.023867 -0.037527 0.010000
   vertex 0.027527 -0.041187 0.010000
   vertex 0.027527 -0.041187 0.010800
  endloop
 endfacet
 facet normal -0.707107 -0.707107 0.000000
  outer loop
   vertex 0.023867 -0.037527 0.010000
   vertex 0.027527 -0.041187 0.010800
   vertex 0.023867 -0.037527 0.010800
  endloop
 endfacet
 facet normal -0.258819 -0.965926 0.000000
  outer loop
   vertex 0.027527 -0.041187 0.010000
   vertex 0.032527 -0.042527 0.010000
   vertex 0.032527 -0.042527 0.010800
  endloop
 endfacet
 facet normal -0.258819 -0.965926 0.000000
  outer loop
   vertex 0.027527 -0.041187 0.010000
   vertex 0.032527 -0.042527 0.010800
   vertex 0.027527 -0.041187 0.010800
  endloop
 endfacet
 facet normal 0.258819 -0.965926 0.000000
  outer loop
   vertex 0.032527 -0.042527 0.010000
   vertex 0.037527 -0.041187 0.010000
   vertex 0.037527 -0.041187 0.010800
  endloop
 endfacet
 facet normal 0.258819 -0.965926 0.000000
  outer loop
   vertex 0.032527 -0.042527 0.010000
   vertex 0.037527 -0.041187 0.010800
   vertex 0.032527 -0.042527 0.010800
  endloop
 endfacet
 facet normal 0.707107 -0.707107 0.000000
  outer loop
   vertex 0.037527 -0.041187 0.010000
   vertex 0.041187 -0.037527 0.010000
   vertex 0.041187 -0.037527 0.010800
  endloop
 endfacet
 facet normal 0.707107 -0.707107 0.000000
  outer loop
   vertex 0.037527 -0.041187 0.010000
   vertex 0.041187 -0.037527 0.010800
   vertex 0.037527 -0.041187 0.010800
  endloop
 endfacet
 facet normal 0.965926 -0.258819 0.000000
  outer loop
   vertex 0.041187 -0.037527 0.010000
   vertex 0.042527 -0.032527 0.010000
   vertex 0.042527 -0.032527 0.010800
  endloop
 endfacet
 facet normal 0.965926 -0.258819 0.000000
  outer loop
   vertex 0.041187 -0.037527 0.010000
   vertex 0.042527 -0.032527 0.010800
   vertex 0.041187 -0.037527 0.010800
  endloop
 endfacet
 facet normal 0.000000 -0.000000 -1.000000
  outer loop
   vertex 0.041187 -0.027527 0.010000
   vertex 0.042527 -0.032527 0.010000
   vertex 0.032527 -0.032527 0.010000
  endloop
 endfacet
 facet normal 0.000000 -0.000000 -1.000000
  outer loop
   vertex 0.037527 -0.023867 0.010000
   vertex 0.041187 -0.027527 0.010000
   vertex 0.032527 -0.032527 0.010000
  endloop
 endfacet
 facet normal 0.000000 0.000000 -1.000000
  outer loop
   vertex 0.032527 -0.022527 0.010000
   vertex 0.037527 -0.023867 0.010000
   vertex 0.032527 -0.032527 0.010000
  endloop
 endfacet
 facet normal 0.000000 0.000000 -1.000000
  outer loop
   vertex 0.027527 -0.023867 0.010000
   vertex 0.032527 -0.022527 0.010000
   vertex 0.032527 -0.032527 0.010000
  endloop
 endfacet
 facet normal 0.000000 0.000000 -1.000000
  outer loop
   vertex 0.023867 -0.027527 0.010000
   vertex 0.027527 -0.023867 0.010000
   vertex 0.032527 -0.032527 0.010000
  endloop
 endfacet
 facet normal 0.000000 0.000000 -1.000000
  outer loop
   vertex 0.022527 -0.032527 0.010000
   vertex 0.023867 -0.027527 0.010000
   vertex 0.032527 -0.032527 0.010000
  endloop
 endfacet
 facet normal 0.000000 0.000000 -1.000000
  outer loop
   vertex 0.023867 -0.037527 0.010000
   vertex 0.022527 -0.032527 0.010000
   vertex 0.032527 -0.032527 0.010000
  endloop
 endfacet
 facet normal 0.000000 0.000000 -1.000000
  outer loop
   vertex 0.027527 -0.041187 0.010000
   vertex 0.023867 -0.037527 0.010000
   vertex 0.032527 -0.032527 0.010000
  endloop
 endfacet
 facet normal 0.000000 0.000000 -1.000000
  outer loop
   vertex 0.032527 -0.042527 0.010000
   vertex 0.027527 -0.041187 0.010000
   vertex 0.032527 -0.032527 0.010000
  endloop
 endfacet
 facet normal -0.000000 0.000000 -1.000000
  outer loop
   vertex 0.037527 -0.041187 0.010000
   vertex 0.032527 -0.042527 0.010000
   vertex 0.032527 -0.032527 0.010000
  endloop
 endfacet
 facet normal -0.000000 0.000000 -1.000000
  outer loop
   vertex 0.041187 -0.037527 0.010000
   vertex 0.037527 -0.041187 0.010000
   vertex 0.032527 -0.032527 0.010000
  endloop
 endfacet
 facet normal -0.000000 0.000000 -1.000000
  outer loop
   vertex 0.042527 -0.032527 0.010000
   vertex 0.041187 -0.037527 0.010000
   vertex 0.032527 -0.032527 0.010000
  endloop
 endfacet
 facet normal 0.000000 0.000000 1.000000
  outer loop
   vertex 0.042527 -0.032527 0.010800
   vertex 0.041187 -0.027527 0.010800
   vertex 0.032527 -0.032527 0.010800
  endloop
 endfacet
 facet normal 0.000000 0.000000 1.000000
  outer loop
   vertex 0.041187 -0.027527 0.010800
   vertex 0.037527 -0.023867 0.010800
   vertex 0.032527 -0.032527 0.010800
  endloop
 endfacet
 facet normal 0.000000 0.000000 1.000000
  outer loop
   vertex 0.037527 -0.023867 0.010800
   vertex 0.032527 -0.022527 0.010800
   vertex 0.032527 -0.032527 0.010800
  endloop
 endfacet
 facet normal 0.000000 0.000000 1.000000
  outer loop
   vertex 0.032527 -0.022527 0.010800
   vertex 0.027527 -0.023867 0.010800
   vertex 0.032527 -0.032527 0.010800
  endloop
 endfacet
 facet normal 0.000000 0.000000 1.000000
  outer loop
   vertex 0.027527 -0.023867 0.010800
   vertex 0.023867 -0.027527 0.010800
   vertex 0.032527 -0.032527 0.010800
  endloop
 endfacet
 facet normal 0.000000 0.000000 1.000000
  outer loop
   vertex 0.023867 -0.027527 0.010800
   vertex 0.022527 -0.032527 0.010800
   vertex 0.032527 -0.032527 0.010800
  endloop
 endfacet
 facet normal -0.000000 0.000000 1.000000
  outer loop
   vertex 0.022527 -0.032527 0.010800
   vertex 0.023867 -0.037527 0.010800
   vertex 0.032527 -0.032527 0.010800
  endloop
 endfacet
 facet normal -0.000000 0.000000 1.000000
  outer loop
   vertex 0.023867 -0.037527 0.010800
   vertex 0.027527 -0.041187 0.010800
   vertex 0.032527 -0.032527 0.010800
  endloop
 endfacet
 facet normal -0.000000 0.000000 1.000000
  outer loop
   vertex 0.027527 -0.041187 0.010800
   vertex 0.032527 -0.042527 0.010800
   vertex 0.032527 -0.032527 0.010800
  endloop
 endfacet
 facet normal 0.000000 0.000000 1.000000
  outer loop
   vertex 0.032527 -0.042527 0.010800
   vertex 0.037527 -0.041187 0.010800
   vertex 0.032527 -0.032527 0.010800
  endloop
 endfacet
 facet normal 0.000000 -0.000000 1.000000
  outer loop
   vertex 0.037527 -0.041187 0.010800
   vertex 0.041187 -0.037527 0.010800
   vertex 0.032527 -0.032527 0.010800
  endloop
 endfacet
 facet normal 0.000000 -0.000000 1.000000
  outer loop
   vertex 0.041187 -0.037527 0.010800
   vertex 0.042527 -0.032527 0.010800
   vertex 0.032527 -0.032527 0.010800
  endloop
 endfacet
endsolid drone
